<svg class="rich-terminal" viewBox="0 0 1116 562.4" xmlns="http://www.w3.org/2000/svg">
    <!-- Generated with Rich-rs https://github.com/Textualize/rich -->
    <style>

    @font-face {
        font-family: "Fira Code";
        src: local("FiraCode-Regular"),
                url("https://cdnjs.cloudflare.com/ajax/libs/firacode/6.2.0/woff2/FiraCode-Regular.woff2") format("woff2"),
                url("https://cdnjs.cloudflare.com/ajax/libs/firacode/6.2.0/woff/FiraCode-Regular.woff") format("woff");
        font-style: normal;
        font-weight: 400;
    }
    @font-face {
        font-family: "Fira Code";
        src: local("FiraCode-Bold"),
                url("https://cdnjs.cloudflare.com/ajax/libs/firacode/6.2.0/woff2/FiraCode-Bold.woff2") format("woff2"),
                url("https://cdnjs.cloudflare.com/ajax/libs/firacode/6.2.0/woff/FiraCode-Bold.woff") format("woff");
        font-style: bold;
        font-weight: 700;
    }

    .terminal-3391622659-matrix {
        font-family: Fira Code, monospace;
        font-size: 20px;
        line-height: 24.4px;
        font-variant-east-asian: full-width;
    }

    .terminal-3391622659-title {
        font-size: 18px;
        font-weight: bold;
        font-family: arial;
    }

    .terminal-3391622659-r3 { fill: #c5c8c6 }
.terminal-3391622659-r6 { fill: #e0e0e0 }
.terminal-3391622659-r7 { fill: #ff0000 }
.terminal-3391622659-r2 { fill: #0178d4 }
.terminal-3391622659-r1 { fill: #121212 }
.terminal-3391622659-r4 { fill: #6b6b6b }
.terminal-3391622659-r5 { fill: #0178d4;font-weight: bold }
    </style>

    <defs>
    <clipPath id="terminal-3391622659-clip-terminal">
      <rect x="0" y="0" width="1097" height="511.4" />
    </clipPath>
    <clipPath id="terminal-3391622659-line-0">
    <rect x="0" y="1.5" width="1098" height="24.65"/>
            </clipPath>
<clipPath id="terminal-3391622659-line-1">
    <rect x="0" y="25.9" width="1098" height="24.65"/>
            </clipPath>
<clipPath id="terminal-3391622659-line-2">
    <rect x="0" y="50.3" width="1098" height="24.65"/>
            </clipPath>
<clipPath id="terminal-3391622659-line-3">
    <rect x="0" y="74.7" width="1098" height="24.65"/>
            </clipPath>
<clipPath id="terminal-3391622659-line-4">
    <rect x="0" y="99.1" width="1098" height="24.65"/>
            </clipPath>
<clipPath id="terminal-3391622659-line-5">
    <rect x="0" y="123.5" width="1098" height="24.65"/>
            </clipPath>
<clipPath id="terminal-3391622659-line-6">
    <rect x="0" y="147.9" width="1098" height="24.65"/>
            </clipPath>
<clipPath id="terminal-3391622659-line-7">
    <rect x="0" y="172.3" width="1098" height="24.65"/>
            </clipPath>
<clipPath id="terminal-3391622659-line-8">
    <rect x="0" y="196.7" width="1098" height="24.65"/>
            </clipPath>
<clipPath id="terminal-3391622659-line-9">
    <rect x="0" y="221.1" width="1098" height="24.65"/>
            </clipPath>
<clipPath id="terminal-3391622659-line-10">
    <rect x="0" y="245.5" width="1098" height="24.65"/>
            </clipPath>
<clipPath id="terminal-3391622659-line-11">
    <rect x="0" y="269.9" width="1098" height="24.65"/>
            </clipPath>
<clipPath id="terminal-3391622659-line-12">
    <rect x="0" y="294.3" width="1098" height="24.65"/>
            </clipPath>
<clipPath id="terminal-3391622659-line-13">
    <rect x="0" y="318.7" width="1098" height="24.65"/>
            </clipPath>
<clipPath id="terminal-3391622659-line-14">
    <rect x="0" y="343.1" width="1098" height="24.65"/>
            </clipPath>
<clipPath id="terminal-3391622659-line-15">
    <rect x="0" y="367.5" width="1098" height="24.65"/>
            </clipPath>
<clipPath id="terminal-3391622659-line-16">
    <rect x="0" y="391.9" width="1098" height="24.65"/>
            </clipPath>
<clipPath id="terminal-3391622659-line-17">
    <rect x="0" y="416.3" width="1098" height="24.65"/>
            </clipPath>
<clipPath id="terminal-3391622659-line-18">
    <rect x="0" y="440.7" width="1098" height="24.65"/>
            </clipPath>
<clipPath id="terminal-3391622659-line-19">
    <rect x="0" y="465.1" width="1098" height="24.65"/>
            </clipPath>
    </defs>

    <rect fill="#292929" stroke="rgba(255,255,255,0.35)" stroke-width="1" x="1" y="1" width="1114" height="560.4" rx="8"/><text class="terminal-3391622659-title" fill="#c5c8c6" text-anchor="middle" x="557" y="27">TextArea</text>
            <g transform="translate(26,22)">
            <circle cx="0" cy="0" r="7" fill="#ff5f57"/>
            <circle cx="22" cy="0" r="7" fill="#febc2e"/>
            <circle cx="44" cy="0" r="7" fill="#28c840"/>
            </g>
        
    <g transform="translate(9, 41)" clip-path="url(#terminal-3391622659-clip-terminal)">
    <rect fill="#0178d4" x="0" y="1.5" width="12.2" height="24.65" shape-rendering="crispEdges"/><rect fill="#1e1e1e" x="12.2" y="1.5" width="1073.6" height="24.65" shape-rendering="crispEdges"/><rect fill="#121212" x="1085.8" y="1.5" width="12.2" height="24.65" shape-rendering="crispEdges"/><rect fill="#0178d4" x="0" y="25.9" width="12.2" height="24.65" shape-rendering="crispEdges"/><rect fill="#1e1e1e" x="12.2" y="25.9" width="12.2" height="24.65" shape-rendering="crispEdges"/><rect fill="#1e1e1e" x="24.4" y="25.9" width="48.8" height="24.65" shape-rendering="crispEdges"/><rect fill="#1e1e1e" x="73.2" y="25.9" width="48.8" height="24.65" shape-rendering="crispEdges"/><rect fill="#1e1e1e" x="122" y="25.9" width="158.6" height="24.65" shape-rendering="crispEdges"/><rect fill="#1e1e1e" x="280.6" y="25.9" width="73.2" height="24.65" shape-rendering="crispEdges"/><rect fill="#1e1e1e" x="353.8" y="25.9" width="207.4" height="24.65" shape-rendering="crispEdges"/><rect fill="#1e1e1e" x="561.2" y="25.9" width="524.6" height="24.65" shape-rendering="crispEdges"/><rect fill="#121212" x="1085.8" y="25.9" width="12.2" height="24.65" shape-rendering="crispEdges"/><rect fill="#0178d4" x="0" y="50.3" width="12.2" height="24.65" shape-rendering="crispEdges"/><rect fill="#1e1e1e" x="12.2" y="50.3" width="12.2" height="24.65" shape-rendering="crispEdges"/><rect fill="#1e1e1e" x="24.4" y="50.3" width="48.8" height="24.65" shape-rendering="crispEdges"/><rect fill="#1e1e1e" x="73.2" y="50.3" width="1012.6" height="24.65" shape-rendering="crispEdges"/><rect fill="#121212" x="1085.8" y="50.3" width="12.2" height="24.65" shape-rendering="crispEdges"/><rect fill="#0178d4" x="0" y="74.7" width="12.2" height="24.65" shape-rendering="crispEdges"/><rect fill="#1e1e1e" x="12.2" y="74.7" width="12.2" height="24.65" shape-rendering="crispEdges"/><rect fill="#1e1e1e" x="24.4" y="74.7" width="48.8" height="24.65" shape-rendering="crispEdges"/><rect fill="#1e1e1e" x="73.2" y="74.7" width="1012.6" height="24.65" shape-rendering="crispEdges"/><rect fill="#121212" x="1085.8" y="74.7" width="12.2" height="24.65" shape-rendering="crispEdges"/><rect fill="#0178d4" x="0" y="99.1" width="12.2" height="24.65" shape-rendering="crispEdges"/><rect fill="#1e1e1e" x="12.2" y="99.1" width="12.2" height="24.65" shape-rendering="crispEdges"/><rect fill="#1e1e1e" x="24.4" y="99.1" width="48.8" height="24.65" shape-rendering="crispEdges"/><rect fill="#1e1e1e" x="73.2" y="99.1" width="122" height="24.65" shape-rendering="crispEdges"/><rect fill="#1e1e1e" x="195.2" y="99.1" width="890.6" height="24.65" shape-rendering="crispEdges"/><rect fill="#121212" x="1085.8" y="99.1" width="12.2" height="24.65" shape-rendering="crispEdges"/><rect fill="#0178d4" x="0" y="123.5" width="12.2" height="24.65" shape-rendering="crispEdges"/><rect fill="#1e1e1e" x="12.2" y="123.5" width="12.2" height="24.65" shape-rendering="crispEdges"/><rect fill="#1e1e1e" x="24.4" y="123.5" width="48.8" height="24.65" shape-rendering="crispEdges"/><rect fill="#262626" x="73.2" y="123.5" width="61" height="24.65" shape-rendering="crispEdges"/><rect fill="#262626" x="134.2" y="123.5" width="73.2" height="24.65" shape-rendering="crispEdges"/><rect fill="#e0e0e0" x="207.4" y="123.5" width="12.2" height="24.65" shape-rendering="crispEdges"/><rect fill="#262626" x="219.6" y="123.5" width="854" height="24.65" shape-rendering="crispEdges"/><rect fill="#1e1e1e" x="1073.6" y="123.5" width="12.2" height="24.65" shape-rendering="crispEdges"/><rect fill="#121212" x="1085.8" y="123.5" width="12.2" height="24.65" shape-rendering="crispEdges"/><rect fill="#0178d4" x="0" y="147.9" width="12.2" height="24.65" shape-rendering="crispEdges"/><rect fill="#1e1e1e" x="12.2" y="147.9" width="12.2" height="24.65" shape-rendering="crispEdges"/><rect fill="#1e1e1e" x="24.4" y="147.9" width="48.8" height="24.65" shape-rendering="crispEdges"/><rect fill="#1e1e1e" x="73.2" y="147.9" width="48.8" height="24.65" shape-rendering="crispEdges"/><rect fill="#1e1e1e" x="122" y="147.9" width="402.6" height="24.65" shape-rendering="crispEdges"/><rect fill="#1e1e1e" x="524.6" y="147.9" width="561.2" height="24.65" shape-rendering="crispEdges"/><rect fill="#121212" x="1085.8" y="147.9" width="12.2" height="24.65" shape-rendering="crispEdges"/><rect fill="#0178d4" x="0" y="172.3" width="12.2" height="24.65" shape-rendering="crispEdges"/><rect fill="#1e1e1e" x="12.2" y="172.3" width="12.2" height="24.65" shape-rendering="crispEdges"/><rect fill="#1e1e1e" x="24.4" y="172.3" width="48.8" height="24.65" shape-rendering="crispEdges"/><rect fill="#1e1e1e" x="73.2" y="172.3" width="1012.6" height="24.65" shape-rendering="crispEdges"/><rect fill="#121212" x="1085.8" y="172.3" width="12.2" height="24.65" shape-rendering="crispEdges"/><rect fill="#0178d4" x="0" y="196.7" width="12.2" height="24.65" shape-rendering="crispEdges"/><rect fill="#1e1e1e" x="12.2" y="196.7" width="12.2" height="24.65" shape-rendering="crispEdges"/><rect fill="#1e1e1e" x="24.4" y="196.7" width="48.8" height="24.65" shape-rendering="crispEdges"/><rect fill="#1e1e1e" x="73.2" y="196.7" width="170.8" height="24.65" shape-rendering="crispEdges"/><rect fill="#1e1e1e" x="244" y="196.7" width="841.8" height="24.65" shape-rendering="crispEdges"/><rect fill="#121212" x="1085.8" y="196.7" width="12.2" height="24.65" shape-rendering="crispEdges"/><rect fill="#0178d4" x="0" y="221.1" width="12.2" height="24.65" shape-rendering="crispEdges"/><rect fill="#1e1e1e" x="12.2" y="221.1" width="12.2" height="24.65" shape-rendering="crispEdges"/><rect fill="#1e1e1e" x="24.4" y="221.1" width="48.8" height="24.65" shape-rendering="crispEdges"/><rect fill="#1e1e1e" x="73.2" y="221.1" width="597.8" height="24.65" shape-rendering="crispEdges"/><rect fill="#1e1e1e" x="671" y="221.1" width="414.8" height="24.65" shape-rendering="crispEdges"/><rect fill="#121212" x="1085.8" y="221.1" width="12.2" height="24.65" shape-rendering="crispEdges"/><rect fill="#0178d4" x="0" y="245.5" width="12.2" height="24.65" shape-rendering="crispEdges"/><rect fill="#1e1e1e" x="12.2" y="245.5" width="12.2" height="24.65" shape-rendering="crispEdges"/><rect fill="#1e1e1e" x="24.4" y="245.5" width="48.8" height="24.65" shape-rendering="crispEdges"/><rect fill="#1e1e1e" x="73.2" y="245.5" width="268.4" height="24.65" shape-rendering="crispEdges"/><rect fill="#1e1e1e" x="341.6" y="245.5" width="744.2" height="24.65" shape-rendering="crispEdges"/><rect fill="#121212" x="1085.8" y="245.5" width="12.2" height="24.65" shape-rendering="crispEdges"/><rect fill="#0178d4" x="0" y="269.9" width="12.2" height="24.65" shape-rendering="crispEdges"/><rect fill="#1e1e1e" x="12.2" y="269.9" width="12.2" height="24.65" shape-rendering="crispEdges"/><rect fill="#1e1e1e" x="24.4" y="269.9" width="48.8" height="24.65" shape-rendering="crispEdges"/><rect fill="#1e1e1e" x="73.2" y="269.9" width="1012.6" height="24.65" shape-rendering="crispEdges"/><rect fill="#121212" x="1085.8" y="269.9" width="12.2" height="24.65" shape-rendering="crispEdges"/><rect fill="#0178d4" x="0" y="294.3" width="12.2" height="24.65" shape-rendering="crispEdges"/><rect fill="#1e1e1e" x="12.2" y="294.3" width="12.2" height="24.65" shape-rendering="crispEdges"/><rect fill="#1e1e1e" x="24.4" y="294.3" width="48.8" height="24.65" shape-rendering="crispEdges"/><rect fill="#1e1e1e" x="73.2" y="294.3" width="48.8" height="24.65" shape-rendering="crispEdges"/><rect fill="#1e1e1e" x="122" y="294.3" width="36.6" height="24.65" shape-rendering="crispEdges"/><rect fill="#1e1e1e" x="158.6" y="294.3" width="268.4" height="24.65" shape-rendering="crispEdges"/><rect fill="#1e1e1e" x="427" y="294.3" width="658.8" height="24.65" shape-rendering="crispEdges"/><rect fill="#121212" x="1085.8" y="294.3" width="12.2" height="24.65" shape-rendering="crispEdges"/><rect fill="#0178d4" x="0" y="318.7" width="12.2" height="24.65" shape-rendering="crispEdges"/><rect fill="#1e1e1e" x="12.2" y="318.7" width="12.2" height="24.65" shape-rendering="crispEdges"/><rect fill="#1e1e1e" x="24.4" y="318.7" width="48.8" height="24.65" shape-rendering="crispEdges"/><rect fill="#1e1e1e" x="73.2" y="318.7" width="402.6" height="24.65" shape-rendering="crispEdges"/><rect fill="#1e1e1e" x="475.8" y="318.7" width="610" height="24.65" shape-rendering="crispEdges"/><rect fill="#121212" x="1085.8" y="318.7" width="12.2" height="24.65" shape-rendering="crispEdges"/><rect fill="#0178d4" x="0" y="343.1" width="12.2" height="24.65" shape-rendering="crispEdges"/><rect fill="#1e1e1e" x="12.2" y="343.1" width="12.2" height="24.65" shape-rendering="crispEdges"/><rect fill="#1e1e1e" x="24.4" y="343.1" width="48.8" height="24.65" shape-rendering="crispEdges"/><rect fill="#1e1e1e" x="73.2" y="343.1" width="1012.6" height="24.65" shape-rendering="crispEdges"/><rect fill="#121212" x="1085.8" y="343.1" width="12.2" height="24.65" shape-rendering="crispEdges"/><rect fill="#0178d4" x="0" y="367.5" width="12.2" height="24.65" shape-rendering="crispEdges"/><rect fill="#1e1e1e" x="12.2" y="367.5" width="12.2" height="24.65" shape-rendering="crispEdges"/><rect fill="#1e1e1e" x="24.4" y="367.5" width="48.8" height="24.65" shape-rendering="crispEdges"/><rect fill="#1e1e1e" x="73.2" y="367.5" width="1012.6" height="24.65" shape-rendering="crispEdges"/><rect fill="#121212" x="1085.8" y="367.5" width="12.2" height="24.65" shape-rendering="crispEdges"/><rect fill="#0178d4" x="0" y="391.9" width="12.2" height="24.65" shape-rendering="crispEdges"/><rect fill="#1e1e1e" x="12.2" y="391.9" width="12.2" height="24.65" shape-rendering="crispEdges"/><rect fill="#1e1e1e" x="24.4" y="391.9" width="48.8" height="24.65" shape-rendering="crispEdges"/><rect fill="#1e1e1e" x="73.2" y="391.9" width="36.6" height="24.65" shape-rendering="crispEdges"/><rect fill="#1e1e1e" x="109.8" y="391.9" width="427" height="24.65" shape-rendering="crispEdges"/><rect fill="#1e1e1e" x="536.8" y="391.9" width="549" height="24.65" shape-rendering="crispEdges"/><rect fill="#121212" x="1085.8" y="391.9" width="12.2" height="24.65" shape-rendering="crispEdges"/><rect fill="#0178d4" x="0" y="416.3" width="12.2" height="24.65" shape-rendering="crispEdges"/><rect fill="#1e1e1e" x="12.2" y="416.3" width="12.2" height="24.65" shape-rendering="crispEdges"/><rect fill="#1e1e1e" x="24.4" y="416.3" width="48.8" height="24.65" shape-rendering="crispEdges"/><rect fill="#1e1e1e" x="73.2" y="416.3" width="268.4" height="24.65" shape-rendering="crispEdges"/><rect fill="#1e1e1e" x="341.6" y="416.3" width="36.6" height="24.65" shape-rendering="crispEdges"/><rect fill="#1e1e1e" x="378.2" y="416.3" width="183" height="24.65" shape-rendering="crispEdges"/><rect fill="#1e1e1e" x="561.2" y="416.3" width="24.4" height="24.65" shape-rendering="crispEdges"/><rect fill="#1e1e1e" x="585.6" y="416.3" width="183" height="24.65" shape-rendering="crispEdges"/><rect fill="#1e1e1e" x="768.6" y="416.3" width="317.2" height="24.65" shape-rendering="crispEdges"/><rect fill="#121212" x="1085.8" y="416.3" width="12.2" height="24.65" shape-rendering="crispEdges"/><rect fill="#0178d4" x="0" y="440.7" width="12.2" height="24.65" shape-rendering="crispEdges"/><rect fill="#1e1e1e" x="12.2" y="440.7" width="12.2" height="24.65" shape-rendering="crispEdges"/><rect fill="#1e1e1e" x="24.4" y="440.7" width="48.8" height="24.65" shape-rendering="crispEdges"/><rect fill="#1e1e1e" x="73.2" y="440.7" width="48.8" height="24.65" shape-rendering="crispEdges"/><rect fill="#1e1e1e" x="122" y="440.7" width="73.2" height="24.65" shape-rendering="crispEdges"/><rect fill="#1e1e1e" x="195.2" y="440.7" width="12.2" height="24.65" shape-rendering="crispEdges"/><rect fill="#1e1e1e" x="207.4" y="440.7" width="561.2" height="24.65" shape-rendering="crispEdges"/><rect fill="#1e1e1e" x="768.6" y="440.7" width="317.2" height="24.65" shape-rendering="crispEdges"/><rect fill="#121212" x="1085.8" y="440.7" width="12.2" height="24.65" shape-rendering="crispEdges"/><rect fill="#0178d4" x="0" y="465.1" width="12.2" height="24.65" shape-rendering="crispEdges"/><rect fill="#1e1e1e" x="12.2" y="465.1" width="1073.6" height="24.65" shape-rendering="crispEdges"/><rect fill="#121212" x="1085.8" y="465.1" width="12.2" height="24.65" shape-rendering="crispEdges"/>
    <g class="terminal-3391622659-matrix">
    <text class="terminal-3391622659-r1" x="0" y="20" textLength="12.2" clip-path="url(#terminal-3391622659-line-0)">▊</text>
<text class="terminal-3391622659-r2" x="12.2" y="20" textLength="1073.6" clip-path="url(#terminal-3391622659-line-0)">▔▔▔▔▔▔▔▔▔▔▔▔▔▔▔▔▔▔▔▔▔▔▔▔▔▔▔▔▔▔▔▔▔▔▔▔▔▔▔▔▔▔▔▔▔▔▔▔▔▔▔▔▔▔▔▔▔▔▔▔▔▔▔▔▔▔▔▔▔▔▔▔▔▔▔▔▔▔▔▔▔▔▔▔▔▔▔▔</text>
<text class="terminal-3391622659-r2" x="1085.8" y="20" textLength="12.2" clip-path="url(#terminal-3391622659-line-0)">▎</text>
<text class="terminal-3391622659-r1" x="0" y="44.4" textLength="12.2" clip-path="url(#terminal-3391622659-line-1)">▊</text>
<text class="terminal-3391622659-r4" x="24.4" y="44.4" textLength="48.8" clip-path="url(#terminal-3391622659-line-1)">&#160;1&#160;&#160;</text>
<text class="terminal-3391622659-r5" x="73.2" y="44.4" textLength="48.8" clip-path="url(#terminal-3391622659-line-1)">from</text>
<text class="terminal-3391622659-r6" x="122" y="44.4" textLength="158.6" clip-path="url(#terminal-3391622659-line-1)">&#160;dataclasses&#160;</text>
<text class="terminal-3391622659-r5" x="280.6" y="44.4" textLength="73.2" clip-path="url(#terminal-3391622659-line-1)">import</text>
<text class="terminal-3391622659-r6" x="353.8" y="44.4" textLength="207.4" clip-path="url(#terminal-3391622659-line-1)">&#160;dataclass,&#160;field</text>
<text class="terminal-3391622659-r2" x="1085.8" y="44.4" textLength="12.2" clip-path="url(#terminal-3391622659-line-1)">▎</text>
<text class="terminal-3391622659-r1" x="0" y="68.8" textLength="12.2" clip-path="url(#terminal-3391622659-line-2)">▊</text>
<text class="terminal-3391622659-r4" x="24.4" y="68.8" textLength="48.8" clip-path="url(#terminal-3391622659-line-2)">&#160;2&#160;&#160;</text>
<text class="terminal-3391622659-r2" x="1085.8" y="68.8" textLength="12.2" clip-path="url(#terminal-3391622659-line-2)">▎</text>
<text class="terminal-3391622659-r1" x="0" y="93.2" textLength="12.2" clip-path="url(#terminal-3391622659-line-3)">▊</text>
<text class="terminal-3391622659-r4" x="24.4" y="93.2" textLength="48.8" clip-path="url(#terminal-3391622659-line-3)">&#160;3&#160;&#160;</text>
<text class="terminal-3391622659-r2" x="1085.8" y="93.2" textLength="12.2" clip-path="url(#terminal-3391622659-line-3)">▎</text>
<text class="terminal-3391622659-r1" x="0" y="117.6" textLength="12.2" clip-path="url(#terminal-3391622659-line-4)">▊</text>
<text class="terminal-3391622659-r4" x="24.4" y="117.6" textLength="48.8" clip-path="url(#terminal-3391622659-line-4)">&#160;4&#160;&#160;</text>
<text class="terminal-3391622659-r6" x="73.2" y="117.6" textLength="122" clip-path="url(#terminal-3391622659-line-4)">@dataclass</text>
<text class="terminal-3391622659-r2" x="1085.8" y="117.6" textLength="12.2" clip-path="url(#terminal-3391622659-line-4)">▎</text>
<text class="terminal-3391622659-r1" x="0" y="142" textLength="12.2" clip-path="url(#terminal-3391622659-line-5)">▊</text>
<text class="terminal-3391622659-r6" x="24.4" y="142" textLength="48.8" clip-path="url(#terminal-3391622659-line-5)">&#160;5&#160;&#160;</text>
<text class="terminal-3391622659-r5" x="73.2" y="142" textLength="61" clip-path="url(#terminal-3391622659-line-5)">class</text>
<text class="terminal-3391622659-r6" x="134.2" y="142" textLength="73.2" clip-path="url(#terminal-3391622659-line-5)">&#160;Task:</text>
<text class="terminal-3391622659-r2" x="1085.8" y="142" textLength="12.2" clip-path="url(#terminal-3391622659-line-5)">▎</text>
<text class="terminal-3391622659-r1" x="0" y="166.4" textLength="12.2" clip-path="url(#terminal-3391622659-line-6)">▊</text>
<text class="terminal-3391622659-r4" x="24.4" y="166.4" textLength="48.8" clip-path="url(#terminal-3391622659-line-6)">&#160;6&#160;&#160;</text>
<text class="terminal-3391622659-r7" x="122" y="166.4" textLength="402.6" clip-path="url(#terminal-3391622659-line-6)">"""A&#160;single&#160;item&#160;on&#160;the&#160;board."""</text>
<text class="terminal-3391622659-r2" x="1085.8" y="166.4" textLength="12.2" clip-path="url(#terminal-3391622659-line-6)">▎</text>
<text class="terminal-3391622659-r1" x="0" y="190.8" textLength="12.2" clip-path="url(#terminal-3391622659-line-7)">▊</text>
<text class="terminal-3391622659-r4" x="24.4" y="190.8" textLength="48.8" clip-path="url(#terminal-3391622659-line-7)">&#160;7&#160;&#160;</text>
<text class="terminal-3391622659-r2" x="1085.8" y="190.8" textLength="12.2" clip-path="url(#terminal-3391622659-line-7)">▎</text>
<text class="terminal-3391622659-r1" x="0" y="215.2" textLength="12.2" clip-path="url(#terminal-3391622659-line-8)">▊</text>
<text class="terminal-3391622659-r4" x="24.4" y="215.2" textLength="48.8" clip-path="url(#terminal-3391622659-line-8)">&#160;8&#160;&#160;</text>
<text class="terminal-3391622659-r6" x="73.2" y="215.2" textLength="170.8" clip-path="url(#terminal-3391622659-line-8)">&#160;&#160;&#160;&#160;title:&#160;str</text>
<text class="terminal-3391622659-r2" x="1085.8" y="215.2" textLength="12.2" clip-path="url(#terminal-3391622659-line-8)">▎</text>
<text class="terminal-3391622659-r1" x="0" y="239.6" textLength="12.2" clip-path="url(#terminal-3391622659-line-9)">▊</text>
<text class="terminal-3391622659-r4" x="24.4" y="239.6" textLength="48.8" clip-path="url(#terminal-3391622659-line-9)">&#160;9&#160;&#160;</text>
<text class="terminal-3391622659-r6" x="73.2" y="239.6" textLength="597.8" clip-path="url(#terminal-3391622659-line-9)">&#160;&#160;&#160;&#160;tags:&#160;list[str]&#160;=&#160;field(default_factory=list)</text>
<text class="terminal-3391622659-r2" x="1085.8" y="239.6" textLength="12.2" clip-path="url(#terminal-3391622659-line-9)">▎</text>
<text class="terminal-3391622659-r1" x="0" y="264" textLength="12.2" clip-path="url(#terminal-3391622659-line-10)">▊</text>
<text class="terminal-3391622659-r4" x="24.4" y="264" textLength="48.8" clip-path="url(#terminal-3391622659-line-10)">10&#160;&#160;</text>
<text class="terminal-3391622659-r6" x="73.2" y="264" textLength="268.4" clip-path="url(#terminal-3391622659-line-10)">&#160;&#160;&#160;&#160;done:&#160;bool&#160;=&#160;False</text>
<text class="terminal-3391622659-r2" x="1085.8" y="264" textLength="12.2" clip-path="url(#terminal-3391622659-line-10)">▎</text>
<text class="terminal-3391622659-r1" x="0" y="288.4" textLength="12.2" clip-path="url(#terminal-3391622659-line-11)">▊</text>
<text class="terminal-3391622659-r4" x="24.4" y="288.4" textLength="48.8" clip-path="url(#terminal-3391622659-line-11)">11&#160;&#160;</text>
<text class="terminal-3391622659-r2" x="1085.8" y="288.4" textLength="12.2" clip-path="url(#terminal-3391622659-line-11)">▎</text>
<text class="terminal-3391622659-r1" x="0" y="312.8" textLength="12.2" clip-path="url(#terminal-3391622659-line-12)">▊</text>
<text class="terminal-3391622659-r4" x="24.4" y="312.8" textLength="48.8" clip-path="url(#terminal-3391622659-line-12)">12&#160;&#160;</text>
<text class="terminal-3391622659-r5" x="122" y="312.8" textLength="36.6" clip-path="url(#terminal-3391622659-line-12)">def</text>
<text class="terminal-3391622659-r6" x="158.6" y="312.8" textLength="268.4" clip-path="url(#terminal-3391622659-line-12)">&#160;toggle(self)&#160;-&gt;&#160;None:</text>
<text class="terminal-3391622659-r2" x="1085.8" y="312.8" textLength="12.2" clip-path="url(#terminal-3391622659-line-12)">▎</text>
<text class="terminal-3391622659-r1" x="0" y="337.2" textLength="12.2" clip-path="url(#terminal-3391622659-line-13)">▊</text>
<text class="terminal-3391622659-r4" x="24.4" y="337.2" textLength="48.8" clip-path="url(#terminal-3391622659-line-13)">13&#160;&#160;</text>
<text class="terminal-3391622659-r6" x="73.2" y="337.2" textLength="402.6" clip-path="url(#terminal-3391622659-line-13)">&#160;&#160;&#160;&#160;&#160;&#160;&#160;&#160;self.done&#160;=&#160;not&#160;self.done</text>
<text class="terminal-3391622659-r2" x="1085.8" y="337.2" textLength="12.2" clip-path="url(#terminal-3391622659-line-13)">▎</text>
<text class="terminal-3391622659-r1" x="0" y="361.6" textLength="12.2" clip-path="url(#terminal-3391622659-line-14)">▊</text>
<text class="terminal-3391622659-r4" x="24.4" y="361.6" textLength="48.8" clip-path="url(#terminal-3391622659-line-14)">14&#160;&#160;</text>
<text class="terminal-3391622659-r2" x="1085.8" y="361.6" textLength="12.2" clip-path="url(#terminal-3391622659-line-14)">▎</text>
<text class="terminal-3391622659-r1" x="0" y="386" textLength="12.2" clip-path="url(#terminal-3391622659-line-15)">▊</text>
<text class="terminal-3391622659-r4" x="24.4" y="386" textLength="48.8" clip-path="url(#terminal-3391622659-line-15)">15&#160;&#160;</text>
<text class="terminal-3391622659-r2" x="1085.8" y="386" textLength="12.2" clip-path="url(#terminal-3391622659-line-15)">▎</text>
<text class="terminal-3391622659-r1" x="0" y="410.4" textLength="12.2" clip-path="url(#terminal-3391622659-line-16)">▊</text>
<text class="terminal-3391622659-r4" x="24.4" y="410.4" textLength="48.8" clip-path="url(#terminal-3391622659-line-16)">16&#160;&#160;</text>
<text class="terminal-3391622659-r5" x="73.2" y="410.4" textLength="36.6" clip-path="url(#terminal-3391622659-line-16)">def</text>
<text class="terminal-3391622659-r6" x="109.8" y="410.4" textLength="427" clip-path="url(#terminal-3391622659-line-16)">&#160;summary(tasks:&#160;list[Task])&#160;-&gt;&#160;str:</text>
<text class="terminal-3391622659-r2" x="1085.8" y="410.4" textLength="12.2" clip-path="url(#terminal-3391622659-line-16)">▎</text>
<text class="terminal-3391622659-r1" x="0" y="434.8" textLength="12.2" clip-path="url(#terminal-3391622659-line-17)">▊</text>
<text class="terminal-3391622659-r4" x="24.4" y="434.8" textLength="48.8" clip-path="url(#terminal-3391622659-line-17)">17&#160;&#160;</text>
<text class="terminal-3391622659-r6" x="73.2" y="434.8" textLength="268.4" clip-path="url(#terminal-3391622659-line-17)">&#160;&#160;&#160;&#160;remaining&#160;=&#160;sum(1&#160;</text>
<text class="terminal-3391622659-r5" x="341.6" y="434.8" textLength="36.6" clip-path="url(#terminal-3391622659-line-17)">for</text>
<text class="terminal-3391622659-r6" x="378.2" y="434.8" textLength="183" clip-path="url(#terminal-3391622659-line-17)">&#160;task&#160;in&#160;tasks&#160;</text>
<text class="terminal-3391622659-r5" x="561.2" y="434.8" textLength="24.4" clip-path="url(#terminal-3391622659-line-17)">if</text>
<text class="terminal-3391622659-r6" x="585.6" y="434.8" textLength="183" clip-path="url(#terminal-3391622659-line-17)">&#160;not&#160;task.done)</text>
<text class="terminal-3391622659-r2" x="1085.8" y="434.8" textLength="12.2" clip-path="url(#terminal-3391622659-line-17)">▎</text>
<text class="terminal-3391622659-r1" x="0" y="459.2" textLength="12.2" clip-path="url(#terminal-3391622659-line-18)">▊</text>
<text class="terminal-3391622659-r4" x="24.4" y="459.2" textLength="48.8" clip-path="url(#terminal-3391622659-line-18)">18&#160;&#160;</text>
<text class="terminal-3391622659-r5" x="122" y="459.2" textLength="73.2" clip-path="url(#terminal-3391622659-line-18)">return</text>
<text class="terminal-3391622659-r7" x="207.4" y="459.2" textLength="561.2" clip-path="url(#terminal-3391622659-line-18)">f"{remaining}&#160;of&#160;{len(tasks)}&#160;tasks&#160;remaining"</text>
<text class="terminal-3391622659-r2" x="1085.8" y="459.2" textLength="12.2" clip-path="url(#terminal-3391622659-line-18)">▎</text>
<text class="terminal-3391622659-r1" x="0" y="483.6" textLength="12.2" clip-path="url(#terminal-3391622659-line-19)">▊</text>
<text class="terminal-3391622659-r2" x="12.2" y="483.6" textLength="1073.6" clip-path="url(#terminal-3391622659-line-19)">▁▁▁▁▁▁▁▁▁▁▁▁▁▁▁▁▁▁▁▁▁▁▁▁▁▁▁▁▁▁▁▁▁▁▁▁▁▁▁▁▁▁▁▁▁▁▁▁▁▁▁▁▁▁▁▁▁▁▁▁▁▁▁▁▁▁▁▁▁▁▁▁▁▁▁▁▁▁▁▁▁▁▁▁▁▁▁▁</text>
<text class="terminal-3391622659-r2" x="1085.8" y="483.6" textLength="12.2" clip-path="url(#terminal-3391622659-line-19)">▎</text>
    </g>
    </g>
</svg>
