<svg class="rich-terminal" viewBox="0 0 1116 367.2" xmlns="http://www.w3.org/2000/svg">
    <!-- Generated with Rich-rs https://github.com/Textualize/rich -->
    <style>

    @font-face {
        font-family: "Fira Code";
        src: local("FiraCode-Regular"),
                url("https://cdnjs.cloudflare.com/ajax/libs/firacode/6.2.0/woff2/FiraCode-Regular.woff2") format("woff2"),
                url("https://cdnjs.cloudflare.com/ajax/libs/firacode/6.2.0/woff/FiraCode-Regular.woff") format("woff");
        font-style: normal;
        font-weight: 400;
    }
    @font-face {
        font-family: "Fira Code";
        src: local("FiraCode-Bold"),
                url("https://cdnjs.cloudflare.com/ajax/libs/firacode/6.2.0/woff2/FiraCode-Bold.woff2") format("woff2"),
                url("https://cdnjs.cloudflare.com/ajax/libs/firacode/6.2.0/woff/FiraCode-Bold.woff") format("woff");
        font-style: bold;
        font-weight: 700;
    }

    .terminal-2289894918-matrix {
        font-family: Fira Code, monospace;
        font-size: 20px;
        line-height: 24.4px;
        font-variant-east-asian: full-width;
    }

    .terminal-2289894918-title {
        font-size: 18px;
        font-weight: bold;
        font-family: arial;
    }

    .terminal-2289894918-r2 { fill: #e0e0e0;font-weight: bold }
.terminal-2289894918-r4 { fill: #ddedf9;font-weight: bold }
.terminal-2289894918-r1 { fill: #c5c8c6 }
.terminal-2289894918-r3 { fill: #e0e0e0 }
    </style>

    <defs>
    <clipPath id="terminal-2289894918-clip-terminal">
      <rect x="0" y="0" width="1097" height="316.2" />
    </clipPath>
    <clipPath id="terminal-2289894918-line-0">
    <rect x="0" y="1.5" width="1098" height="24.65"/>
            </clipPath>
<clipPath id="terminal-2289894918-line-1">
    <rect x="0" y="25.9" width="1098" height="24.65"/>
            </clipPath>
<clipPath id="terminal-2289894918-line-2">
    <rect x="0" y="50.3" width="1098" height="24.65"/>
            </clipPath>
<clipPath id="terminal-2289894918-line-3">
    <rect x="0" y="74.7" width="1098" height="24.65"/>
            </clipPath>
<clipPath id="terminal-2289894918-line-4">
    <rect x="0" y="99.1" width="1098" height="24.65"/>
            </clipPath>
<clipPath id="terminal-2289894918-line-5">
    <rect x="0" y="123.5" width="1098" height="24.65"/>
            </clipPath>
<clipPath id="terminal-2289894918-line-6">
    <rect x="0" y="147.9" width="1098" height="24.65"/>
            </clipPath>
<clipPath id="terminal-2289894918-line-7">
    <rect x="0" y="172.3" width="1098" height="24.65"/>
            </clipPath>
<clipPath id="terminal-2289894918-line-8">
    <rect x="0" y="196.7" width="1098" height="24.65"/>
            </clipPath>
<clipPath id="terminal-2289894918-line-9">
    <rect x="0" y="221.1" width="1098" height="24.65"/>
            </clipPath>
<clipPath id="terminal-2289894918-line-10">
    <rect x="0" y="245.5" width="1098" height="24.65"/>
            </clipPath>
<clipPath id="terminal-2289894918-line-11">
    <rect x="0" y="269.9" width="1098" height="24.65"/>
            </clipPath>
    </defs>

    <rect fill="#292929" stroke="rgba(255,255,255,0.35)" stroke-width="1" x="1" y="1" width="1114" height="365.2" rx="8"/><text class="terminal-2289894918-title" fill="#c5c8c6" text-anchor="middle" x="557" y="27">DataTable</text>
            <g transform="translate(26,22)">
            <circle cx="0" cy="0" r="7" fill="#ff5f57"/>
            <circle cx="22" cy="0" r="7" fill="#febc2e"/>
            <circle cx="44" cy="0" r="7" fill="#28c840"/>
            </g>
        
    <g transform="translate(9, 41)" clip-path="url(#terminal-2289894918-clip-terminal)">
    <rect fill="#2d3740" x="0" y="1.5" width="12.2" height="24.65" shape-rendering="crispEdges"/><rect fill="#2d3740" x="12.2" y="1.5" width="146.4" height="24.65" shape-rendering="crispEdges"/><rect fill="#2d3740" x="158.6" y="1.5" width="24.4" height="24.65" shape-rendering="crispEdges"/><rect fill="#2d3740" x="183" y="1.5" width="158.6" height="24.65" shape-rendering="crispEdges"/><rect fill="#2d3740" x="341.6" y="1.5" width="24.4" height="24.65" shape-rendering="crispEdges"/><rect fill="#2d3740" x="366" y="1.5" width="48.8" height="24.65" shape-rendering="crispEdges"/><rect fill="#2d3740" x="414.8" y="1.5" width="24.4" height="24.65" shape-rendering="crispEdges"/><rect fill="#2d3740" x="439.2" y="1.5" width="122" height="24.65" shape-rendering="crispEdges"/><rect fill="#2d3740" x="561.2" y="1.5" width="24.4" height="24.65" shape-rendering="crispEdges"/><rect fill="#2d3740" x="585.6" y="1.5" width="85.4" height="24.65" shape-rendering="crispEdges"/><rect fill="#2d3740" x="671" y="1.5" width="12.2" height="24.65" shape-rendering="crispEdges"/><rect fill="#2b3339" x="683.2" y="1.5" width="414.8" height="24.65" shape-rendering="crispEdges"/><rect fill="#272727" x="0" y="25.9" width="12.2" height="24.65" shape-rendering="crispEdges"/><rect fill="#272727" x="12.2" y="25.9" width="146.4" height="24.65" shape-rendering="crispEdges"/><rect fill="#272727" x="158.6" y="25.9" width="24.4" height="24.65" shape-rendering="crispEdges"/><rect fill="#272727" x="183" y="25.9" width="158.6" height="24.65" shape-rendering="crispEdges"/><rect fill="#272727" x="341.6" y="25.9" width="24.4" height="24.65" shape-rendering="crispEdges"/><rect fill="#272727" x="366" y="25.9" width="48.8" height="24.65" shape-rendering="crispEdges"/><rect fill="#272727" x="414.8" y="25.9" width="24.4" height="24.65" shape-rendering="crispEdges"/><rect fill="#272727" x="439.2" y="25.9" width="122" height="24.65" shape-rendering="crispEdges"/><rect fill="#272727" x="561.2" y="25.9" width="24.4" height="24.65" shape-rendering="crispEdges"/><rect fill="#272727" x="585.6" y="25.9" width="85.4" height="24.65" shape-rendering="crispEdges"/><rect fill="#272727" x="671" y="25.9" width="427" height="24.65" shape-rendering="crispEdges"/><rect fill="#272727" x="0" y="50.3" width="12.2" height="24.65" shape-rendering="crispEdges"/><rect fill="#272727" x="12.2" y="50.3" width="146.4" height="24.65" shape-rendering="crispEdges"/><rect fill="#272727" x="158.6" y="50.3" width="24.4" height="24.65" shape-rendering="crispEdges"/><rect fill="#272727" x="183" y="50.3" width="158.6" height="24.65" shape-rendering="crispEdges"/><rect fill="#272727" x="341.6" y="50.3" width="24.4" height="24.65" shape-rendering="crispEdges"/><rect fill="#272727" x="366" y="50.3" width="48.8" height="24.65" shape-rendering="crispEdges"/><rect fill="#272727" x="414.8" y="50.3" width="24.4" height="24.65" shape-rendering="crispEdges"/><rect fill="#272727" x="439.2" y="50.3" width="122" height="24.65" shape-rendering="crispEdges"/><rect fill="#272727" x="561.2" y="50.3" width="24.4" height="24.65" shape-rendering="crispEdges"/><rect fill="#272727" x="585.6" y="50.3" width="85.4" height="24.65" shape-rendering="crispEdges"/><rect fill="#272727" x="671" y="50.3" width="427" height="24.65" shape-rendering="crispEdges"/><rect fill="#272727" x="0" y="74.7" width="12.2" height="24.65" shape-rendering="crispEdges"/><rect fill="#272727" x="12.2" y="74.7" width="146.4" height="24.65" shape-rendering="crispEdges"/><rect fill="#272727" x="158.6" y="74.7" width="12.2" height="24.65" shape-rendering="crispEdges"/><rect fill="#0178d4" x="170.8" y="74.7" width="12.2" height="24.65" shape-rendering="crispEdges"/><rect fill="#0178d4" x="183" y="74.7" width="158.6" height="24.65" shape-rendering="crispEdges"/><rect fill="#0178d4" x="341.6" y="74.7" width="12.2" height="24.65" shape-rendering="crispEdges"/><rect fill="#272727" x="353.8" y="74.7" width="12.2" height="24.65" shape-rendering="crispEdges"/><rect fill="#272727" x="366" y="74.7" width="48.8" height="24.65" shape-rendering="crispEdges"/><rect fill="#272727" x="414.8" y="74.7" width="24.4" height="24.65" shape-rendering="crispEdges"/><rect fill="#272727" x="439.2" y="74.7" width="122" height="24.65" shape-rendering="crispEdges"/><rect fill="#272727" x="561.2" y="74.7" width="24.4" height="24.65" shape-rendering="crispEdges"/><rect fill="#272727" x="585.6" y="74.7" width="85.4" height="24.65" shape-rendering="crispEdges"/><rect fill="#272727" x="671" y="74.7" width="427" height="24.65" shape-rendering="crispEdges"/><rect fill="#272727" x="0" y="99.1" width="12.2" height="24.65" shape-rendering="crispEdges"/><rect fill="#272727" x="12.2" y="99.1" width="146.4" height="24.65" shape-rendering="crispEdges"/><rect fill="#272727" x="158.6" y="99.1" width="24.4" height="24.65" shape-rendering="crispEdges"/><rect fill="#272727" x="183" y="99.1" width="158.6" height="24.65" shape-rendering="crispEdges"/><rect fill="#272727" x="341.6" y="99.1" width="24.4" height="24.65" shape-rendering="crispEdges"/><rect fill="#272727" x="366" y="99.1" width="48.8" height="24.65" shape-rendering="crispEdges"/><rect fill="#272727" x="414.8" y="99.1" width="24.4" height="24.65" shape-rendering="crispEdges"/><rect fill="#272727" x="439.2" y="99.1" width="122" height="24.65" shape-rendering="crispEdges"/><rect fill="#272727" x="561.2" y="99.1" width="24.4" height="24.65" shape-rendering="crispEdges"/><rect fill="#272727" x="585.6" y="99.1" width="85.4" height="24.65" shape-rendering="crispEdges"/><rect fill="#272727" x="671" y="99.1" width="427" height="24.65" shape-rendering="crispEdges"/><rect fill="#272727" x="0" y="123.5" width="12.2" height="24.65" shape-rendering="crispEdges"/><rect fill="#272727" x="12.2" y="123.5" width="146.4" height="24.65" shape-rendering="crispEdges"/><rect fill="#272727" x="158.6" y="123.5" width="24.4" height="24.65" shape-rendering="crispEdges"/><rect fill="#272727" x="183" y="123.5" width="158.6" height="24.65" shape-rendering="crispEdges"/><rect fill="#272727" x="341.6" y="123.5" width="24.4" height="24.65" shape-rendering="crispEdges"/><rect fill="#272727" x="366" y="123.5" width="48.8" height="24.65" shape-rendering="crispEdges"/><rect fill="#272727" x="414.8" y="123.5" width="24.4" height="24.65" shape-rendering="crispEdges"/><rect fill="#272727" x="439.2" y="123.5" width="122" height="24.65" shape-rendering="crispEdges"/><rect fill="#272727" x="561.2" y="123.5" width="24.4" height="24.65" shape-rendering="crispEdges"/><rect fill="#272727" x="585.6" y="123.5" width="85.4" height="24.65" shape-rendering="crispEdges"/><rect fill="#272727" x="671" y="123.5" width="427" height="24.65" shape-rendering="crispEdges"/><rect fill="#272727" x="0" y="147.9" width="12.2" height="24.65" shape-rendering="crispEdges"/><rect fill="#272727" x="12.2" y="147.9" width="146.4" height="24.65" shape-rendering="crispEdges"/><rect fill="#272727" x="158.6" y="147.9" width="24.4" height="24.65" shape-rendering="crispEdges"/><rect fill="#272727" x="183" y="147.9" width="158.6" height="24.65" shape-rendering="crispEdges"/><rect fill="#272727" x="341.6" y="147.9" width="24.4" height="24.65" shape-rendering="crispEdges"/><rect fill="#272727" x="366" y="147.9" width="48.8" height="24.65" shape-rendering="crispEdges"/><rect fill="#272727" x="414.8" y="147.9" width="24.4" height="24.65" shape-rendering="crispEdges"/><rect fill="#272727" x="439.2" y="147.9" width="122" height="24.65" shape-rendering="crispEdges"/><rect fill="#272727" x="561.2" y="147.9" width="24.4" height="24.65" shape-rendering="crispEdges"/><rect fill="#272727" x="585.6" y="147.9" width="85.4" height="24.65" shape-rendering="crispEdges"/><rect fill="#272727" x="671" y="147.9" width="427" height="24.65" shape-rendering="crispEdges"/><rect fill="#272727" x="0" y="172.3" width="12.2" height="24.65" shape-rendering="crispEdges"/><rect fill="#272727" x="12.2" y="172.3" width="146.4" height="24.65" shape-rendering="crispEdges"/><rect fill="#272727" x="158.6" y="172.3" width="24.4" height="24.65" shape-rendering="crispEdges"/><rect fill="#272727" x="183" y="172.3" width="158.6" height="24.65" shape-rendering="crispEdges"/><rect fill="#272727" x="341.6" y="172.3" width="24.4" height="24.65" shape-rendering="crispEdges"/><rect fill="#272727" x="366" y="172.3" width="48.8" height="24.65" shape-rendering="crispEdges"/><rect fill="#272727" x="414.8" y="172.3" width="24.4" height="24.65" shape-rendering="crispEdges"/><rect fill="#272727" x="439.2" y="172.3" width="122" height="24.65" shape-rendering="crispEdges"/><rect fill="#272727" x="561.2" y="172.3" width="24.4" height="24.65" shape-rendering="crispEdges"/><rect fill="#272727" x="585.6" y="172.3" width="85.4" height="24.65" shape-rendering="crispEdges"/><rect fill="#272727" x="671" y="172.3" width="427" height="24.65" shape-rendering="crispEdges"/><rect fill="#272727" x="0" y="196.7" width="12.2" height="24.65" shape-rendering="crispEdges"/><rect fill="#272727" x="12.2" y="196.7" width="146.4" height="24.65" shape-rendering="crispEdges"/><rect fill="#272727" x="158.6" y="196.7" width="24.4" height="24.65" shape-rendering="crispEdges"/><rect fill="#272727" x="183" y="196.7" width="158.6" height="24.65" shape-rendering="crispEdges"/><rect fill="#272727" x="341.6" y="196.7" width="24.4" height="24.65" shape-rendering="crispEdges"/><rect fill="#272727" x="366" y="196.7" width="48.8" height="24.65" shape-rendering="crispEdges"/><rect fill="#272727" x="414.8" y="196.7" width="24.4" height="24.65" shape-rendering="crispEdges"/><rect fill="#272727" x="439.2" y="196.7" width="122" height="24.65" shape-rendering="crispEdges"/><rect fill="#272727" x="561.2" y="196.7" width="24.4" height="24.65" shape-rendering="crispEdges"/><rect fill="#272727" x="585.6" y="196.7" width="85.4" height="24.65" shape-rendering="crispEdges"/><rect fill="#272727" x="671" y="196.7" width="427" height="24.65" shape-rendering="crispEdges"/><rect fill="#272727" x="0" y="221.1" width="12.2" height="24.65" shape-rendering="crispEdges"/><rect fill="#272727" x="12.2" y="221.1" width="146.4" height="24.65" shape-rendering="crispEdges"/><rect fill="#272727" x="158.6" y="221.1" width="24.4" height="24.65" shape-rendering="crispEdges"/><rect fill="#272727" x="183" y="221.1" width="158.6" height="24.65" shape-rendering="crispEdges"/><rect fill="#272727" x="341.6" y="221.1" width="24.4" height="24.65" shape-rendering="crispEdges"/><rect fill="#272727" x="366" y="221.1" width="48.8" height="24.65" shape-rendering="crispEdges"/><rect fill="#272727" x="414.8" y="221.1" width="24.4" height="24.65" shape-rendering="crispEdges"/><rect fill="#272727" x="439.2" y="221.1" width="122" height="24.65" shape-rendering="crispEdges"/><rect fill="#272727" x="561.2" y="221.1" width="24.4" height="24.65" shape-rendering="crispEdges"/><rect fill="#272727" x="585.6" y="221.1" width="85.4" height="24.65" shape-rendering="crispEdges"/><rect fill="#272727" x="671" y="221.1" width="427" height="24.65" shape-rendering="crispEdges"/><rect fill="#272727" x="0" y="245.5" width="12.2" height="24.65" shape-rendering="crispEdges"/><rect fill="#272727" x="12.2" y="245.5" width="146.4" height="24.65" shape-rendering="crispEdges"/><rect fill="#272727" x="158.6" y="245.5" width="24.4" height="24.65" shape-rendering="crispEdges"/><rect fill="#272727" x="183" y="245.5" width="158.6" height="24.65" shape-rendering="crispEdges"/><rect fill="#272727" x="341.6" y="245.5" width="24.4" height="24.65" shape-rendering="crispEdges"/><rect fill="#272727" x="366" y="245.5" width="48.8" height="24.65" shape-rendering="crispEdges"/><rect fill="#272727" x="414.8" y="245.5" width="24.4" height="24.65" shape-rendering="crispEdges"/><rect fill="#272727" x="439.2" y="245.5" width="122" height="24.65" shape-rendering="crispEdges"/><rect fill="#272727" x="561.2" y="245.5" width="24.4" height="24.65" shape-rendering="crispEdges"/><rect fill="#272727" x="585.6" y="245.5" width="85.4" height="24.65" shape-rendering="crispEdges"/><rect fill="#272727" x="671" y="245.5" width="427" height="24.65" shape-rendering="crispEdges"/><rect fill="#121212" x="0" y="269.9" width="1098" height="24.65" shape-rendering="crispEdges"/>
    <g class="terminal-2289894918-matrix">
    <text class="terminal-2289894918-r2" x="12.2" y="20" textLength="146.4" clip-path="url(#terminal-2289894918-line-0)">Mission&#160;&#160;&#160;&#160;&#160;</text>
<text class="terminal-2289894918-r2" x="183" y="20" textLength="158.6" clip-path="url(#terminal-2289894918-line-0)">Vehicle&#160;&#160;&#160;&#160;&#160;&#160;</text>
<text class="terminal-2289894918-r2" x="366" y="20" textLength="48.8" clip-path="url(#terminal-2289894918-line-0)">Crew</text>
<text class="terminal-2289894918-r2" x="439.2" y="20" textLength="122" clip-path="url(#terminal-2289894918-line-0)">Launched&#160;&#160;</text>
<text class="terminal-2289894918-r2" x="585.6" y="20" textLength="85.4" clip-path="url(#terminal-2289894918-line-0)">Outcome</text>
<text class="terminal-2289894918-r3" x="12.2" y="44.4" textLength="146.4" clip-path="url(#terminal-2289894918-line-1)">Apollo&#160;8&#160;&#160;&#160;&#160;</text>
<text class="terminal-2289894918-r3" x="183" y="44.4" textLength="158.6" clip-path="url(#terminal-2289894918-line-1)">Saturn&#160;V&#160;&#160;&#160;&#160;&#160;</text>
<text class="terminal-2289894918-r3" x="366" y="44.4" textLength="48.8" clip-path="url(#terminal-2289894918-line-1)">3&#160;&#160;&#160;</text>
<text class="terminal-2289894918-r3" x="439.2" y="44.4" textLength="122" clip-path="url(#terminal-2289894918-line-1)">1968-12-21</text>
<text class="terminal-2289894918-r3" x="585.6" y="44.4" textLength="85.4" clip-path="url(#terminal-2289894918-line-1)">Success</text>
<text class="terminal-2289894918-r3" x="12.2" y="68.8" textLength="146.4" clip-path="url(#terminal-2289894918-line-2)">Apollo&#160;11&#160;&#160;&#160;</text>
<text class="terminal-2289894918-r3" x="183" y="68.8" textLength="158.6" clip-path="url(#terminal-2289894918-line-2)">Saturn&#160;V&#160;&#160;&#160;&#160;&#160;</text>
<text class="terminal-2289894918-r3" x="366" y="68.8" textLength="48.8" clip-path="url(#terminal-2289894918-line-2)">3&#160;&#160;&#160;</text>
<text class="terminal-2289894918-r3" x="439.2" y="68.8" textLength="122" clip-path="url(#terminal-2289894918-line-2)">1969-07-16</text>
<text class="terminal-2289894918-r3" x="585.6" y="68.8" textLength="85.4" clip-path="url(#terminal-2289894918-line-2)">Success</text>
<text class="terminal-2289894918-r3" x="12.2" y="93.2" textLength="146.4" clip-path="url(#terminal-2289894918-line-3)">Apollo&#160;13&#160;&#160;&#160;</text>
<text class="terminal-2289894918-r4" x="183" y="93.2" textLength="158.6" clip-path="url(#terminal-2289894918-line-3)">Saturn&#160;V&#160;&#160;&#160;&#160;&#160;</text>
<text class="terminal-2289894918-r3" x="366" y="93.2" textLength="48.8" clip-path="url(#terminal-2289894918-line-3)">3&#160;&#160;&#160;</text>
<text class="terminal-2289894918-r3" x="439.2" y="93.2" textLength="122" clip-path="url(#terminal-2289894918-line-3)">1970-04-11</text>
<text class="terminal-2289894918-r3" x="585.6" y="93.2" textLength="85.4" clip-path="url(#terminal-2289894918-line-3)">Aborted</text>
<text class="terminal-2289894918-r3" x="12.2" y="117.6" textLength="146.4" clip-path="url(#terminal-2289894918-line-4)">Skylab&#160;2&#160;&#160;&#160;&#160;</text>
<text class="terminal-2289894918-r3" x="183" y="117.6" textLength="158.6" clip-path="url(#terminal-2289894918-line-4)">Saturn&#160;IB&#160;&#160;&#160;&#160;</text>
<text class="terminal-2289894918-r3" x="366" y="117.6" textLength="48.8" clip-path="url(#terminal-2289894918-line-4)">3&#160;&#160;&#160;</text>
<text class="terminal-2289894918-r3" x="439.2" y="117.6" textLength="122" clip-path="url(#terminal-2289894918-line-4)">1973-05-25</text>
<text class="terminal-2289894918-r3" x="585.6" y="117.6" textLength="85.4" clip-path="url(#terminal-2289894918-line-4)">Success</text>
<text class="terminal-2289894918-r3" x="12.2" y="142" textLength="146.4" clip-path="url(#terminal-2289894918-line-5)">STS-1&#160;&#160;&#160;&#160;&#160;&#160;&#160;</text>
<text class="terminal-2289894918-r3" x="183" y="142" textLength="158.6" clip-path="url(#terminal-2289894918-line-5)">Space&#160;Shuttle</text>
<text class="terminal-2289894918-r3" x="366" y="142" textLength="48.8" clip-path="url(#terminal-2289894918-line-5)">2&#160;&#160;&#160;</text>
<text class="terminal-2289894918-r3" x="439.2" y="142" textLength="122" clip-path="url(#terminal-2289894918-line-5)">1981-04-12</text>
<text class="terminal-2289894918-r3" x="585.6" y="142" textLength="85.4" clip-path="url(#terminal-2289894918-line-5)">Success</text>
<text class="terminal-2289894918-r3" x="12.2" y="166.4" textLength="146.4" clip-path="url(#terminal-2289894918-line-6)">STS-61&#160;&#160;&#160;&#160;&#160;&#160;</text>
<text class="terminal-2289894918-r3" x="183" y="166.4" textLength="158.6" clip-path="url(#terminal-2289894918-line-6)">Space&#160;Shuttle</text>
<text class="terminal-2289894918-r3" x="366" y="166.4" textLength="48.8" clip-path="url(#terminal-2289894918-line-6)">7&#160;&#160;&#160;</text>
<text class="terminal-2289894918-r3" x="439.2" y="166.4" textLength="122" clip-path="url(#terminal-2289894918-line-6)">1993-12-02</text>
<text class="terminal-2289894918-r3" x="585.6" y="166.4" textLength="85.4" clip-path="url(#terminal-2289894918-line-6)">Success</text>
<text class="terminal-2289894918-r3" x="12.2" y="190.8" textLength="146.4" clip-path="url(#terminal-2289894918-line-7)">Expedition&#160;1</text>
<text class="terminal-2289894918-r3" x="183" y="190.8" textLength="158.6" clip-path="url(#terminal-2289894918-line-7)">Soyuz&#160;TM-31&#160;&#160;</text>
<text class="terminal-2289894918-r3" x="366" y="190.8" textLength="48.8" clip-path="url(#terminal-2289894918-line-7)">3&#160;&#160;&#160;</text>
<text class="terminal-2289894918-r3" x="439.2" y="190.8" textLength="122" clip-path="url(#terminal-2289894918-line-7)">2000-10-31</text>
<text class="terminal-2289894918-r3" x="585.6" y="190.8" textLength="85.4" clip-path="url(#terminal-2289894918-line-7)">Success</text>
<text class="terminal-2289894918-r3" x="12.2" y="215.2" textLength="146.4" clip-path="url(#terminal-2289894918-line-8)">Demo-2&#160;&#160;&#160;&#160;&#160;&#160;</text>
<text class="terminal-2289894918-r3" x="183" y="215.2" textLength="158.6" clip-path="url(#terminal-2289894918-line-8)">Falcon&#160;9&#160;&#160;&#160;&#160;&#160;</text>
<text class="terminal-2289894918-r3" x="366" y="215.2" textLength="48.8" clip-path="url(#terminal-2289894918-line-8)">2&#160;&#160;&#160;</text>
<text class="terminal-2289894918-r3" x="439.2" y="215.2" textLength="122" clip-path="url(#terminal-2289894918-line-8)">2020-05-30</text>
<text class="terminal-2289894918-r3" x="585.6" y="215.2" textLength="85.4" clip-path="url(#terminal-2289894918-line-8)">Success</text>
<text class="terminal-2289894918-r3" x="12.2" y="239.6" textLength="146.4" clip-path="url(#terminal-2289894918-line-9)">Inspiration4</text>
<text class="terminal-2289894918-r3" x="183" y="239.6" textLength="158.6" clip-path="url(#terminal-2289894918-line-9)">Falcon&#160;9&#160;&#160;&#160;&#160;&#160;</text>
<text class="terminal-2289894918-r3" x="366" y="239.6" textLength="48.8" clip-path="url(#terminal-2289894918-line-9)">4&#160;&#160;&#160;</text>
<text class="terminal-2289894918-r3" x="439.2" y="239.6" textLength="122" clip-path="url(#terminal-2289894918-line-9)">2021-09-15</text>
<text class="terminal-2289894918-r3" x="585.6" y="239.6" textLength="85.4" clip-path="url(#terminal-2289894918-line-9)">Success</text>
<text class="terminal-2289894918-r3" x="12.2" y="264" textLength="146.4" clip-path="url(#terminal-2289894918-line-10)">Artemis&#160;I&#160;&#160;&#160;</text>
<text class="terminal-2289894918-r3" x="183" y="264" textLength="158.6" clip-path="url(#terminal-2289894918-line-10)">SLS&#160;&#160;&#160;&#160;&#160;&#160;&#160;&#160;&#160;&#160;</text>
<text class="terminal-2289894918-r3" x="366" y="264" textLength="48.8" clip-path="url(#terminal-2289894918-line-10)">0&#160;&#160;&#160;</text>
<text class="terminal-2289894918-r3" x="439.2" y="264" textLength="122" clip-path="url(#terminal-2289894918-line-10)">2022-11-16</text>
<text class="terminal-2289894918-r3" x="585.6" y="264" textLength="85.4" clip-path="url(#terminal-2289894918-line-10)">Success</text>
    </g>
    </g>
</svg>
