<svg class="rich-terminal" viewBox="0 0 994 489.2" xmlns="http://www.w3.org/2000/svg">
    <!-- Generated with Rich-rs https://github.com/Textualize/rich -->
    <style>

    @font-face {
        font-family: "Fira Code";
        src: local("FiraCode-Regular"),
                url("https://cdnjs.cloudflare.com/ajax/libs/firacode/6.2.0/woff2/FiraCode-Regular.woff2") format("woff2"),
                url("https://cdnjs.cloudflare.com/ajax/libs/firacode/6.2.0/woff/FiraCode-Regular.woff") format("woff");
        font-style: normal;
        font-weight: 400;
    }
    @font-face {
        font-family: "Fira Code";
        src: local("FiraCode-Bold"),
                url("https://cdnjs.cloudflare.com/ajax/libs/firacode/6.2.0/woff2/FiraCode-Bold.woff2") format("woff2"),
                url("https://cdnjs.cloudflare.com/ajax/libs/firacode/6.2.0/woff/FiraCode-Bold.woff") format("woff");
        font-style: bold;
        font-weight: 700;
    }

    .terminal-2521551042-matrix {
        font-family: Fira Code, monospace;
        font-size: 20px;
        line-height: 24.4px;
        font-variant-east-asian: full-width;
    }

    .terminal-2521551042-title {
        font-size: 18px;
        font-weight: bold;
        font-family: arial;
    }

    .terminal-2521551042-r8 { fill: #ffc473 }
.terminal-2521551042-r3 { fill: #e0e0e0 }
.terminal-2521551042-r6 { fill: #e0e0e0;font-weight: bold }
.terminal-2521551042-r9 { fill: #ffffff }
.terminal-2521551042-r11 { fill: #ffffff;font-weight: bold }
.terminal-2521551042-r4 { fill: #f4bb6e }
.terminal-2521551042-r5 { fill: #e0e0e0;font-style: italic }
.terminal-2521551042-r10 { fill: #ffc473;text-decoration: underline }
.terminal-2521551042-r12 { fill: #7dc092 }
.terminal-2521551042-r2 { fill: #0178d4;text-decoration: underline }
.terminal-2521551042-r1 { fill: #c5c8c6 }
.terminal-2521551042-r7 { fill: #57a5e2 }
    </style>

    <defs>
    <clipPath id="terminal-2521551042-clip-terminal">
      <rect x="0" y="0" width="975" height="438.2" />
    </clipPath>
    <clipPath id="terminal-2521551042-line-0">
    <rect x="0" y="1.5" width="976" height="24.65"/>
            </clipPath>
<clipPath id="terminal-2521551042-line-1">
    <rect x="0" y="25.9" width="976" height="24.65"/>
            </clipPath>
<clipPath id="terminal-2521551042-line-2">
    <rect x="0" y="50.3" width="976" height="24.65"/>
            </clipPath>
<clipPath id="terminal-2521551042-line-3">
    <rect x="0" y="74.7" width="976" height="24.65"/>
            </clipPath>
<clipPath id="terminal-2521551042-line-4">
    <rect x="0" y="99.1" width="976" height="24.65"/>
            </clipPath>
<clipPath id="terminal-2521551042-line-5">
    <rect x="0" y="123.5" width="976" height="24.65"/>
            </clipPath>
<clipPath id="terminal-2521551042-line-6">
    <rect x="0" y="147.9" width="976" height="24.65"/>
            </clipPath>
<clipPath id="terminal-2521551042-line-7">
    <rect x="0" y="172.3" width="976" height="24.65"/>
            </clipPath>
<clipPath id="terminal-2521551042-line-8">
    <rect x="0" y="196.7" width="976" height="24.65"/>
            </clipPath>
<clipPath id="terminal-2521551042-line-9">
    <rect x="0" y="221.1" width="976" height="24.65"/>
            </clipPath>
<clipPath id="terminal-2521551042-line-10">
    <rect x="0" y="245.5" width="976" height="24.65"/>
            </clipPath>
<clipPath id="terminal-2521551042-line-11">
    <rect x="0" y="269.9" width="976" height="24.65"/>
            </clipPath>
<clipPath id="terminal-2521551042-line-12">
    <rect x="0" y="294.3" width="976" height="24.65"/>
            </clipPath>
<clipPath id="terminal-2521551042-line-13">
    <rect x="0" y="318.7" width="976" height="24.65"/>
            </clipPath>
<clipPath id="terminal-2521551042-line-14">
    <rect x="0" y="343.1" width="976" height="24.65"/>
            </clipPath>
<clipPath id="terminal-2521551042-line-15">
    <rect x="0" y="367.5" width="976" height="24.65"/>
            </clipPath>
<clipPath id="terminal-2521551042-line-16">
    <rect x="0" y="391.9" width="976" height="24.65"/>
            </clipPath>
    </defs>

    <rect fill="#292929" stroke="rgba(255,255,255,0.35)" stroke-width="1" x="1" y="1" width="992" height="487.2" rx="8"/><text class="terminal-2521551042-title" fill="#c5c8c6" text-anchor="middle" x="496" y="27">Markdown</text>
            <g transform="translate(26,22)">
            <circle cx="0" cy="0" r="7" fill="#ff5f57"/>
            <circle cx="22" cy="0" r="7" fill="#febc2e"/>
            <circle cx="44" cy="0" r="7" fill="#28c840"/>
            </g>
        
    <g transform="translate(9, 41)" clip-path="url(#terminal-2521551042-clip-terminal)">
    <rect fill="#121212" x="0" y="1.5" width="976" height="24.65" shape-rendering="crispEdges"/><rect fill="#121212" x="0" y="25.9" width="976" height="24.65" shape-rendering="crispEdges"/><rect fill="#121212" x="0" y="50.3" width="24.4" height="24.65" shape-rendering="crispEdges"/><rect fill="#121212" x="24.4" y="50.3" width="414.8" height="24.65" shape-rendering="crispEdges"/><rect fill="#121212" x="439.2" y="50.3" width="536.8" height="24.65" shape-rendering="crispEdges"/><rect fill="#121212" x="0" y="74.7" width="976" height="24.65" shape-rendering="crispEdges"/><rect fill="#121212" x="0" y="99.1" width="24.4" height="24.65" shape-rendering="crispEdges"/><rect fill="#121212" x="24.4" y="99.1" width="48.8" height="24.65" shape-rendering="crispEdges"/><rect fill="#292014" x="73.2" y="99.1" width="97.6" height="24.65" shape-rendering="crispEdges"/><rect fill="#121212" x="170.8" y="99.1" width="317.2" height="24.65" shape-rendering="crispEdges"/><rect fill="#121212" x="488" y="99.1" width="97.6" height="24.65" shape-rendering="crispEdges"/><rect fill="#121212" x="585.6" y="99.1" width="24.4" height="24.65" shape-rendering="crispEdges"/><rect fill="#121212" x="610" y="99.1" width="134.2" height="24.65" shape-rendering="crispEdges"/><rect fill="#121212" x="744.2" y="99.1" width="24.4" height="24.65" shape-rendering="crispEdges"/><rect fill="#292014" x="768.6" y="99.1" width="134.2" height="24.65" shape-rendering="crispEdges"/><rect fill="#121212" x="902.8" y="99.1" width="24.4" height="24.65" shape-rendering="crispEdges"/><rect fill="#121212" x="927.2" y="99.1" width="48.8" height="24.65" shape-rendering="crispEdges"/><rect fill="#121212" x="0" y="123.5" width="24.4" height="24.65" shape-rendering="crispEdges"/><rect fill="#121212" x="24.4" y="123.5" width="463.6" height="24.65" shape-rendering="crispEdges"/><rect fill="#121212" x="488" y="123.5" width="488" height="24.65" shape-rendering="crispEdges"/><rect fill="#121212" x="0" y="147.9" width="976" height="24.65" shape-rendering="crispEdges"/><rect fill="#121212" x="0" y="172.3" width="24.4" height="24.65" shape-rendering="crispEdges"/><rect fill="#121212" x="24.4" y="172.3" width="24.4" height="24.65" shape-rendering="crispEdges"/><rect fill="#121212" x="48.8" y="172.3" width="341.6" height="24.65" shape-rendering="crispEdges"/><rect fill="#121212" x="390.4" y="172.3" width="585.6" height="24.65" shape-rendering="crispEdges"/><rect fill="#121212" x="0" y="196.7" width="24.4" height="24.65" shape-rendering="crispEdges"/><rect fill="#121212" x="24.4" y="196.7" width="24.4" height="24.65" shape-rendering="crispEdges"/><rect fill="#121212" x="48.8" y="196.7" width="353.8" height="24.65" shape-rendering="crispEdges"/><rect fill="#121212" x="402.6" y="196.7" width="573.4" height="24.65" shape-rendering="crispEdges"/><rect fill="#121212" x="0" y="221.1" width="24.4" height="24.65" shape-rendering="crispEdges"/><rect fill="#121212" x="24.4" y="221.1" width="24.4" height="24.65" shape-rendering="crispEdges"/><rect fill="#121212" x="48.8" y="221.1" width="244" height="24.65" shape-rendering="crispEdges"/><rect fill="#121212" x="292.8" y="221.1" width="683.2" height="24.65" shape-rendering="crispEdges"/><rect fill="#121212" x="0" y="245.5" width="976" height="24.65" shape-rendering="crispEdges"/><rect fill="#121212" x="0" y="269.9" width="24.4" height="24.65" shape-rendering="crispEdges"/><rect fill="#101010" x="24.4" y="269.9" width="927.2" height="24.65" shape-rendering="crispEdges"/><rect fill="#121212" x="951.6" y="269.9" width="24.4" height="24.65" shape-rendering="crispEdges"/><rect fill="#121212" x="0" y="294.3" width="24.4" height="24.65" shape-rendering="crispEdges"/><rect fill="#101010" x="24.4" y="294.3" width="24.4" height="24.65" shape-rendering="crispEdges"/><rect fill="#101010" x="48.8" y="294.3" width="36.6" height="24.65" shape-rendering="crispEdges"/><rect fill="#101010" x="85.4" y="294.3" width="12.2" height="24.65" shape-rendering="crispEdges"/><rect fill="#101010" x="97.6" y="294.3" width="61" height="24.65" shape-rendering="crispEdges"/><rect fill="#101010" x="158.6" y="294.3" width="12.2" height="24.65" shape-rendering="crispEdges"/><rect fill="#101010" x="170.8" y="294.3" width="48.8" height="24.65" shape-rendering="crispEdges"/><rect fill="#101010" x="219.6" y="294.3" width="24.4" height="24.65" shape-rendering="crispEdges"/><rect fill="#101010" x="244" y="294.3" width="36.6" height="24.65" shape-rendering="crispEdges"/><rect fill="#101010" x="280.6" y="294.3" width="24.4" height="24.65" shape-rendering="crispEdges"/><rect fill="#101010" x="305" y="294.3" width="24.4" height="24.65" shape-rendering="crispEdges"/><rect fill="#101010" x="329.4" y="294.3" width="12.2" height="24.65" shape-rendering="crispEdges"/><rect fill="#101010" x="341.6" y="294.3" width="36.6" height="24.65" shape-rendering="crispEdges"/><rect fill="#101010" x="378.2" y="294.3" width="12.2" height="24.65" shape-rendering="crispEdges"/><rect fill="#101010" x="390.4" y="294.3" width="561.2" height="24.65" shape-rendering="crispEdges"/><rect fill="#121212" x="951.6" y="294.3" width="24.4" height="24.65" shape-rendering="crispEdges"/><rect fill="#121212" x="0" y="318.7" width="24.4" height="24.65" shape-rendering="crispEdges"/><rect fill="#101010" x="24.4" y="318.7" width="24.4" height="24.65" shape-rendering="crispEdges"/><rect fill="#101010" x="48.8" y="318.7" width="48.8" height="24.65" shape-rendering="crispEdges"/><rect fill="#101010" x="97.6" y="318.7" width="73.2" height="24.65" shape-rendering="crispEdges"/><rect fill="#101010" x="170.8" y="318.7" width="12.2" height="24.65" shape-rendering="crispEdges"/><rect fill="#101010" x="183" y="318.7" width="12.2" height="24.65" shape-rendering="crispEdges"/><rect fill="#101010" x="195.2" y="318.7" width="97.6" height="24.65" shape-rendering="crispEdges"/><rect fill="#101010" x="292.8" y="318.7" width="12.2" height="24.65" shape-rendering="crispEdges"/><rect fill="#101010" x="305" y="318.7" width="48.8" height="24.65" shape-rendering="crispEdges"/><rect fill="#101010" x="353.8" y="318.7" width="12.2" height="24.65" shape-rendering="crispEdges"/><rect fill="#101010" x="366" y="318.7" width="24.4" height="24.65" shape-rendering="crispEdges"/><rect fill="#101010" x="390.4" y="318.7" width="561.2" height="24.65" shape-rendering="crispEdges"/><rect fill="#121212" x="951.6" y="318.7" width="24.4" height="24.65" shape-rendering="crispEdges"/><rect fill="#121212" x="0" y="343.1" width="24.4" height="24.65" shape-rendering="crispEdges"/><rect fill="#101010" x="24.4" y="343.1" width="927.2" height="24.65" shape-rendering="crispEdges"/><rect fill="#121212" x="951.6" y="343.1" width="24.4" height="24.65" shape-rendering="crispEdges"/><rect fill="#121212" x="0" y="367.5" width="976" height="24.65" shape-rendering="crispEdges"/><rect fill="#121212" x="0" y="391.9" width="976" height="24.65" shape-rendering="crispEdges"/>
    <g class="terminal-2521551042-matrix">
    <text class="terminal-2521551042-r2" x="24.4" y="68.8" textLength="414.8" clip-path="url(#terminal-2521551042-line-2)">Markdown,&#160;rendered&#160;in&#160;the&#160;terminal</text>
<text class="terminal-2521551042-r3" x="24.4" y="117.6" textLength="48.8" clip-path="url(#terminal-2521551042-line-4)">The&#160;</text>
<text class="terminal-2521551042-r4" x="73.2" y="117.6" textLength="97.6" clip-path="url(#terminal-2521551042-line-4)">Markdown</text>
<text class="terminal-2521551042-r3" x="170.8" y="117.6" textLength="317.2" clip-path="url(#terminal-2521551042-line-4)">&#160;widget&#160;renders&#160;headings,&#160;</text>
<text class="terminal-2521551042-r5" x="488" y="117.6" textLength="97.6" clip-path="url(#terminal-2521551042-line-4)">emphasis</text>
<text class="terminal-2521551042-r3" x="585.6" y="117.6" textLength="24.4" clip-path="url(#terminal-2521551042-line-4)">,&#160;</text>
<text class="terminal-2521551042-r6" x="610" y="117.6" textLength="134.2" clip-path="url(#terminal-2521551042-line-4)">strong&#160;text</text>
<text class="terminal-2521551042-r3" x="744.2" y="117.6" textLength="24.4" clip-path="url(#terminal-2521551042-line-4)">,&#160;</text>
<text class="terminal-2521551042-r4" x="768.6" y="117.6" textLength="134.2" clip-path="url(#terminal-2521551042-line-4)">inline&#160;code</text>
<text class="terminal-2521551042-r3" x="902.8" y="117.6" textLength="24.4" clip-path="url(#terminal-2521551042-line-4)">,&#160;</text>
<text class="terminal-2521551042-r3" x="24.4" y="142" textLength="463.6" clip-path="url(#terminal-2521551042-line-5)">lists,&#160;tables,&#160;and&#160;fenced&#160;code&#160;blocks.</text>
<text class="terminal-2521551042-r7" x="24.4" y="190.8" textLength="24.4" clip-path="url(#terminal-2521551042-line-7)">•&#160;</text>
<text class="terminal-2521551042-r3" x="48.8" y="190.8" textLength="341.6" clip-path="url(#terminal-2521551042-line-7)">Reactive&#160;state&#160;with&#160;watchers</text>
<text class="terminal-2521551042-r7" x="24.4" y="215.2" textLength="24.4" clip-path="url(#terminal-2521551042-line-8)">•&#160;</text>
<text class="terminal-2521551042-r3" x="48.8" y="215.2" textLength="353.8" clip-path="url(#terminal-2521551042-line-8)">CSS&#160;styling&#160;with&#160;theme&#160;tokens</text>
<text class="terminal-2521551042-r7" x="24.4" y="239.6" textLength="24.4" clip-path="url(#terminal-2521551042-line-9)">•&#160;</text>
<text class="terminal-2521551042-r3" x="48.8" y="239.6" textLength="244" clip-path="url(#terminal-2521551042-line-9)">A&#160;real&#160;layout&#160;engine</text>
<text class="terminal-2521551042-r8" x="48.8" y="312.8" textLength="36.6" clip-path="url(#terminal-2521551042-line-12)">def</text>
<text class="terminal-2521551042-r10" x="97.6" y="312.8" textLength="61" clip-path="url(#terminal-2521551042-line-12)">greet</text>
<text class="terminal-2521551042-r9" x="158.6" y="312.8" textLength="12.2" clip-path="url(#terminal-2521551042-line-12)">(</text>
<text class="terminal-2521551042-r7" x="170.8" y="312.8" textLength="48.8" clip-path="url(#terminal-2521551042-line-12)">name</text>
<text class="terminal-2521551042-r9" x="219.6" y="312.8" textLength="24.4" clip-path="url(#terminal-2521551042-line-12)">:&#160;</text>
<text class="terminal-2521551042-r8" x="244" y="312.8" textLength="36.6" clip-path="url(#terminal-2521551042-line-12)">str</text>
<text class="terminal-2521551042-r9" x="280.6" y="312.8" textLength="24.4" clip-path="url(#terminal-2521551042-line-12)">)&#160;</text>
<text class="terminal-2521551042-r11" x="305" y="312.8" textLength="24.4" clip-path="url(#terminal-2521551042-line-12)">-&gt;</text>
<text class="terminal-2521551042-r8" x="341.6" y="312.8" textLength="36.6" clip-path="url(#terminal-2521551042-line-12)">str</text>
<text class="terminal-2521551042-r9" x="378.2" y="312.8" textLength="12.2" clip-path="url(#terminal-2521551042-line-12)">:</text>
<text class="terminal-2521551042-r8" x="97.6" y="337.2" textLength="73.2" clip-path="url(#terminal-2521551042-line-13)">return</text>
<text class="terminal-2521551042-r8" x="183" y="337.2" textLength="12.2" clip-path="url(#terminal-2521551042-line-13)">f</text>
<text class="terminal-2521551042-r12" x="195.2" y="337.2" textLength="97.6" clip-path="url(#terminal-2521551042-line-13)">"Hello,&#160;</text>
<text class="terminal-2521551042-r9" x="292.8" y="337.2" textLength="12.2" clip-path="url(#terminal-2521551042-line-13)">{</text>
<text class="terminal-2521551042-r7" x="305" y="337.2" textLength="48.8" clip-path="url(#terminal-2521551042-line-13)">name</text>
<text class="terminal-2521551042-r9" x="353.8" y="337.2" textLength="12.2" clip-path="url(#terminal-2521551042-line-13)">}</text>
<text class="terminal-2521551042-r12" x="366" y="337.2" textLength="24.4" clip-path="url(#terminal-2521551042-line-13)">!"</text>
    </g>
    </g>
</svg>
