<svg class="rich-terminal" viewBox="0 0 1116 660" xmlns="http://www.w3.org/2000/svg">
    <!-- Generated with Rich-rs https://github.com/Textualize/rich -->
    <style>

    @font-face {
        font-family: "Fira Code";
        src: local("FiraCode-Regular"),
                url("https://cdnjs.cloudflare.com/ajax/libs/firacode/6.2.0/woff2/FiraCode-Regular.woff2") format("woff2"),
                url("https://cdnjs.cloudflare.com/ajax/libs/firacode/6.2.0/woff/FiraCode-Regular.woff") format("woff");
        font-style: normal;
        font-weight: 400;
    }
    @font-face {
        font-family: "Fira Code";
        src: local("FiraCode-Bold"),
                url("https://cdnjs.cloudflare.com/ajax/libs/firacode/6.2.0/woff2/FiraCode-Bold.woff2") format("woff2"),
                url("https://cdnjs.cloudflare.com/ajax/libs/firacode/6.2.0/woff/FiraCode-Bold.woff") format("woff");
        font-style: bold;
        font-weight: 700;
    }

    .terminal-1739701186-matrix {
        font-family: Fira Code, monospace;
        font-size: 20px;
        line-height: 24.4px;
        font-variant-east-asian: full-width;
    }

    .terminal-1739701186-title {
        font-size: 18px;
        font-weight: bold;
        font-family: arial;
    }

    .terminal-1739701186-r7 { fill: #fa733c }
.terminal-1739701186-r15 { fill: #850100 }
.terminal-1739701186-r3 { fill: #1e1e1b;font-weight: bold }
.terminal-1739701186-r14 { fill: #485f00 }
.terminal-1739701186-r17 { fill: #fdf6e3 }
.terminal-1739701186-r22 { fill: #586e75;font-weight: bold }
.terminal-1739701186-r19 { fill: #eee8d5 }
.terminal-1739701186-r10 { fill: #111300;font-weight: bold }
.terminal-1739701186-r12 { fill: #fae4e3;font-weight: bold }
.terminal-1739701186-r4 { fill: #1e1e1b }
.terminal-1739701186-r16 { fill: #940000 }
.terminal-1739701186-r13 { fill: #005394 }
.terminal-1739701186-r20 { fill: #576400 }
.terminal-1739701186-r1 { fill: #c5c8c6 }
.terminal-1739701186-r18 { fill: #e6e0ce }
.terminal-1739701186-r11 { fill: #f8e7e0;font-weight: bold }
.terminal-1739701186-r8 { fill: #ff6052 }
.terminal-1739701186-r6 { fill: #afc139 }
.terminal-1739701186-r21 { fill: #586e75 }
.terminal-1739701186-r9 { fill: #2889cd;font-weight: bold }
.terminal-1739701186-r2 { fill: #268bd2 }
.terminal-1739701186-r5 { fill: #77c7ff }
    </style>

    <defs>
    <clipPath id="terminal-1739701186-clip-terminal">
      <rect x="0" y="0" width="1097" height="609" />
    </clipPath>
    <clipPath id="terminal-1739701186-line-0">
    <rect x="0" y="1.5" width="1098" height="24.65"/>
            </clipPath>
<clipPath id="terminal-1739701186-line-1">
    <rect x="0" y="25.9" width="1098" height="24.65"/>
            </clipPath>
<clipPath id="terminal-1739701186-line-2">
    <rect x="0" y="50.3" width="1098" height="24.65"/>
            </clipPath>
<clipPath id="terminal-1739701186-line-3">
    <rect x="0" y="74.7" width="1098" height="24.65"/>
            </clipPath>
<clipPath id="terminal-1739701186-line-4">
    <rect x="0" y="99.1" width="1098" height="24.65"/>
            </clipPath>
<clipPath id="terminal-1739701186-line-5">
    <rect x="0" y="123.5" width="1098" height="24.65"/>
            </clipPath>
<clipPath id="terminal-1739701186-line-6">
    <rect x="0" y="147.9" width="1098" height="24.65"/>
            </clipPath>
<clipPath id="terminal-1739701186-line-7">
    <rect x="0" y="172.3" width="1098" height="24.65"/>
            </clipPath>
<clipPath id="terminal-1739701186-line-8">
    <rect x="0" y="196.7" width="1098" height="24.65"/>
            </clipPath>
<clipPath id="terminal-1739701186-line-9">
    <rect x="0" y="221.1" width="1098" height="24.65"/>
            </clipPath>
<clipPath id="terminal-1739701186-line-10">
    <rect x="0" y="245.5" width="1098" height="24.65"/>
            </clipPath>
<clipPath id="terminal-1739701186-line-11">
    <rect x="0" y="269.9" width="1098" height="24.65"/>
            </clipPath>
<clipPath id="terminal-1739701186-line-12">
    <rect x="0" y="294.3" width="1098" height="24.65"/>
            </clipPath>
<clipPath id="terminal-1739701186-line-13">
    <rect x="0" y="318.7" width="1098" height="24.65"/>
            </clipPath>
<clipPath id="terminal-1739701186-line-14">
    <rect x="0" y="343.1" width="1098" height="24.65"/>
            </clipPath>
<clipPath id="terminal-1739701186-line-15">
    <rect x="0" y="367.5" width="1098" height="24.65"/>
            </clipPath>
<clipPath id="terminal-1739701186-line-16">
    <rect x="0" y="391.9" width="1098" height="24.65"/>
            </clipPath>
<clipPath id="terminal-1739701186-line-17">
    <rect x="0" y="416.3" width="1098" height="24.65"/>
            </clipPath>
<clipPath id="terminal-1739701186-line-18">
    <rect x="0" y="440.7" width="1098" height="24.65"/>
            </clipPath>
<clipPath id="terminal-1739701186-line-19">
    <rect x="0" y="465.1" width="1098" height="24.65"/>
            </clipPath>
<clipPath id="terminal-1739701186-line-20">
    <rect x="0" y="489.5" width="1098" height="24.65"/>
            </clipPath>
<clipPath id="terminal-1739701186-line-21">
    <rect x="0" y="513.9" width="1098" height="24.65"/>
            </clipPath>
<clipPath id="terminal-1739701186-line-22">
    <rect x="0" y="538.3" width="1098" height="24.65"/>
            </clipPath>
<clipPath id="terminal-1739701186-line-23">
    <rect x="0" y="562.7" width="1098" height="24.65"/>
            </clipPath>
    </defs>

    <rect fill="#292929" stroke="rgba(255,255,255,0.35)" stroke-width="1" x="1" y="1" width="1114" height="658" rx="8"/><text class="terminal-1739701186-title" fill="#c5c8c6" text-anchor="middle" x="557" y="27">solarized-light</text>
            <g transform="translate(26,22)">
            <circle cx="0" cy="0" r="7" fill="#ff5f57"/>
            <circle cx="22" cy="0" r="7" fill="#febc2e"/>
            <circle cx="44" cy="0" r="7" fill="#28c840"/>
            </g>
        
    <g transform="translate(9, 41)" clip-path="url(#terminal-1739701186-clip-terminal)">
    <rect fill="#fdf6e3" x="0" y="1.5" width="1098" height="24.65" shape-rendering="crispEdges"/><rect fill="#fdf6e3" x="0" y="25.9" width="1098" height="24.65" shape-rendering="crispEdges"/><rect fill="#fdf6e3" x="0" y="50.3" width="1098" height="24.65" shape-rendering="crispEdges"/><rect fill="#fdf6e3" x="0" y="74.7" width="61" height="24.65" shape-rendering="crispEdges"/><rect fill="#eee8d5" x="61" y="74.7" width="976" height="24.65" shape-rendering="crispEdges"/><rect fill="#fdf6e3" x="1037" y="74.7" width="61" height="24.65" shape-rendering="crispEdges"/><rect fill="#fdf6e3" x="0" y="99.1" width="61" height="24.65" shape-rendering="crispEdges"/><rect fill="#eee8d5" x="61" y="99.1" width="12.2" height="24.65" shape-rendering="crispEdges"/><rect fill="#eee8d5" x="73.2" y="99.1" width="951.6" height="24.65" shape-rendering="crispEdges"/><rect fill="#eee8d5" x="1024.8" y="99.1" width="12.2" height="24.65" shape-rendering="crispEdges"/><rect fill="#fdf6e3" x="1037" y="99.1" width="61" height="24.65" shape-rendering="crispEdges"/><rect fill="#fdf6e3" x="0" y="123.5" width="61" height="24.65" shape-rendering="crispEdges"/><rect fill="#eee8d5" x="61" y="123.5" width="12.2" height="24.65" shape-rendering="crispEdges"/><rect fill="#eee8d5" x="73.2" y="123.5" width="207.4" height="24.65" shape-rendering="crispEdges"/><rect fill="#eee8d5" x="280.6" y="123.5" width="207.4" height="24.65" shape-rendering="crispEdges"/><rect fill="#eee8d5" x="488" y="123.5" width="329.4" height="24.65" shape-rendering="crispEdges"/><rect fill="#eee8d5" x="817.4" y="123.5" width="207.4" height="24.65" shape-rendering="crispEdges"/><rect fill="#eee8d5" x="1024.8" y="123.5" width="12.2" height="24.65" shape-rendering="crispEdges"/><rect fill="#fdf6e3" x="1037" y="123.5" width="61" height="24.65" shape-rendering="crispEdges"/><rect fill="#fdf6e3" x="0" y="147.9" width="61" height="24.65" shape-rendering="crispEdges"/><rect fill="#eee8d5" x="61" y="147.9" width="12.2" height="24.65" shape-rendering="crispEdges"/><rect fill="#eee8d5" x="73.2" y="147.9" width="951.6" height="24.65" shape-rendering="crispEdges"/><rect fill="#eee8d5" x="1024.8" y="147.9" width="12.2" height="24.65" shape-rendering="crispEdges"/><rect fill="#fdf6e3" x="1037" y="147.9" width="61" height="24.65" shape-rendering="crispEdges"/><rect fill="#fdf6e3" x="0" y="172.3" width="61" height="24.65" shape-rendering="crispEdges"/><rect fill="#eee8d5" x="61" y="172.3" width="12.2" height="24.65" shape-rendering="crispEdges"/><rect fill="#eee8d5" x="73.2" y="172.3" width="61" height="24.65" shape-rendering="crispEdges"/><rect fill="#2889cd" x="134.2" y="172.3" width="195.2" height="24.65" shape-rendering="crispEdges"/><rect fill="#eee8d5" x="329.4" y="172.3" width="12.2" height="24.65" shape-rendering="crispEdges"/><rect fill="#849900" x="341.6" y="172.3" width="195.2" height="24.65" shape-rendering="crispEdges"/><rect fill="#eee8d5" x="536.8" y="172.3" width="12.2" height="24.65" shape-rendering="crispEdges"/><rect fill="#ca4b16" x="549" y="172.3" width="195.2" height="24.65" shape-rendering="crispEdges"/><rect fill="#eee8d5" x="744.2" y="172.3" width="12.2" height="24.65" shape-rendering="crispEdges"/><rect fill="#db322f" x="756.4" y="172.3" width="195.2" height="24.65" shape-rendering="crispEdges"/><rect fill="#eee8d5" x="951.6" y="172.3" width="73.2" height="24.65" shape-rendering="crispEdges"/><rect fill="#eee8d5" x="1024.8" y="172.3" width="12.2" height="24.65" shape-rendering="crispEdges"/><rect fill="#fdf6e3" x="1037" y="172.3" width="61" height="24.65" shape-rendering="crispEdges"/><rect fill="#fdf6e3" x="0" y="196.7" width="61" height="24.65" shape-rendering="crispEdges"/><rect fill="#eee8d5" x="61" y="196.7" width="12.2" height="24.65" shape-rendering="crispEdges"/><rect fill="#eee8d5" x="73.2" y="196.7" width="61" height="24.65" shape-rendering="crispEdges"/><rect fill="#2889cd" x="134.2" y="196.7" width="36.6" height="24.65" shape-rendering="crispEdges"/><rect fill="#e3eff8" x="170.8" y="196.7" width="109.8" height="24.65" shape-rendering="crispEdges"/><rect fill="#2889cd" x="280.6" y="196.7" width="48.8" height="24.65" shape-rendering="crispEdges"/><rect fill="#eee8d5" x="329.4" y="196.7" width="12.2" height="24.65" shape-rendering="crispEdges"/><rect fill="#849900" x="341.6" y="196.7" width="36.6" height="24.65" shape-rendering="crispEdges"/><rect fill="#849900" x="378.2" y="196.7" width="109.8" height="24.65" shape-rendering="crispEdges"/><rect fill="#849900" x="488" y="196.7" width="48.8" height="24.65" shape-rendering="crispEdges"/><rect fill="#eee8d5" x="536.8" y="196.7" width="12.2" height="24.65" shape-rendering="crispEdges"/><rect fill="#ca4b16" x="549" y="196.7" width="36.6" height="24.65" shape-rendering="crispEdges"/><rect fill="#ca4b16" x="585.6" y="196.7" width="109.8" height="24.65" shape-rendering="crispEdges"/><rect fill="#ca4b16" x="695.4" y="196.7" width="48.8" height="24.65" shape-rendering="crispEdges"/><rect fill="#eee8d5" x="744.2" y="196.7" width="12.2" height="24.65" shape-rendering="crispEdges"/><rect fill="#db322f" x="756.4" y="196.7" width="48.8" height="24.65" shape-rendering="crispEdges"/><rect fill="#db322f" x="805.2" y="196.7" width="85.4" height="24.65" shape-rendering="crispEdges"/><rect fill="#db322f" x="890.6" y="196.7" width="61" height="24.65" shape-rendering="crispEdges"/><rect fill="#eee8d5" x="951.6" y="196.7" width="73.2" height="24.65" shape-rendering="crispEdges"/><rect fill="#eee8d5" x="1024.8" y="196.7" width="12.2" height="24.65" shape-rendering="crispEdges"/><rect fill="#fdf6e3" x="1037" y="196.7" width="61" height="24.65" shape-rendering="crispEdges"/><rect fill="#fdf6e3" x="0" y="221.1" width="61" height="24.65" shape-rendering="crispEdges"/><rect fill="#eee8d5" x="61" y="221.1" width="12.2" height="24.65" shape-rendering="crispEdges"/><rect fill="#eee8d5" x="73.2" y="221.1" width="61" height="24.65" shape-rendering="crispEdges"/><rect fill="#2889cd" x="134.2" y="221.1" width="195.2" height="24.65" shape-rendering="crispEdges"/><rect fill="#eee8d5" x="329.4" y="221.1" width="12.2" height="24.65" shape-rendering="crispEdges"/><rect fill="#849900" x="341.6" y="221.1" width="195.2" height="24.65" shape-rendering="crispEdges"/><rect fill="#eee8d5" x="536.8" y="221.1" width="12.2" height="24.65" shape-rendering="crispEdges"/><rect fill="#ca4b16" x="549" y="221.1" width="195.2" height="24.65" shape-rendering="crispEdges"/><rect fill="#eee8d5" x="744.2" y="221.1" width="12.2" height="24.65" shape-rendering="crispEdges"/><rect fill="#db322f" x="756.4" y="221.1" width="195.2" height="24.65" shape-rendering="crispEdges"/><rect fill="#eee8d5" x="951.6" y="221.1" width="73.2" height="24.65" shape-rendering="crispEdges"/><rect fill="#eee8d5" x="1024.8" y="221.1" width="12.2" height="24.65" shape-rendering="crispEdges"/><rect fill="#fdf6e3" x="1037" y="221.1" width="61" height="24.65" shape-rendering="crispEdges"/><rect fill="#fdf6e3" x="0" y="245.5" width="61" height="24.65" shape-rendering="crispEdges"/><rect fill="#eee8d5" x="61" y="245.5" width="12.2" height="24.65" shape-rendering="crispEdges"/><rect fill="#eee8d5" x="73.2" y="245.5" width="951.6" height="24.65" shape-rendering="crispEdges"/><rect fill="#eee8d5" x="1024.8" y="245.5" width="12.2" height="24.65" shape-rendering="crispEdges"/><rect fill="#fdf6e3" x="1037" y="245.5" width="61" height="24.65" shape-rendering="crispEdges"/><rect fill="#fdf6e3" x="0" y="269.9" width="61" height="24.65" shape-rendering="crispEdges"/><rect fill="#eee8d5" x="61" y="269.9" width="12.2" height="24.65" shape-rendering="crispEdges"/><rect fill="#eee8d5" x="73.2" y="269.9" width="24.4" height="24.65" shape-rendering="crispEdges"/><rect fill="#e6e0ce" x="97.6" y="269.9" width="12.2" height="24.65" shape-rendering="crispEdges"/><rect fill="#eee8d5" x="109.8" y="269.9" width="183" height="24.65" shape-rendering="crispEdges"/><rect fill="#fdf6e3" x="292.8" y="269.9" width="12.2" height="24.65" shape-rendering="crispEdges"/><rect fill="#eee8d5" x="305" y="269.9" width="24.4" height="24.65" shape-rendering="crispEdges"/><rect fill="#e6e0ce" x="329.4" y="269.9" width="12.2" height="24.65" shape-rendering="crispEdges"/><rect fill="#eee8d5" x="341.6" y="269.9" width="97.6" height="24.65" shape-rendering="crispEdges"/><rect fill="#fdf6e3" x="439.2" y="269.9" width="12.2" height="24.65" shape-rendering="crispEdges"/><rect fill="#eee8d5" x="451.4" y="269.9" width="573.4" height="24.65" shape-rendering="crispEdges"/><rect fill="#eee8d5" x="1024.8" y="269.9" width="12.2" height="24.65" shape-rendering="crispEdges"/><rect fill="#fdf6e3" x="1037" y="269.9" width="61" height="24.65" shape-rendering="crispEdges"/><rect fill="#fdf6e3" x="0" y="294.3" width="61" height="24.65" shape-rendering="crispEdges"/><rect fill="#eee8d5" x="61" y="294.3" width="12.2" height="24.65" shape-rendering="crispEdges"/><rect fill="#eee8d5" x="73.2" y="294.3" width="24.4" height="24.65" shape-rendering="crispEdges"/><rect fill="#e6e0ce" x="97.6" y="294.3" width="12.2" height="24.65" shape-rendering="crispEdges"/><rect fill="#eee8d5" x="109.8" y="294.3" width="12.2" height="24.65" shape-rendering="crispEdges"/><rect fill="#eee8d5" x="122" y="294.3" width="12.2" height="24.65" shape-rendering="crispEdges"/><rect fill="#eee8d5" x="134.2" y="294.3" width="12.2" height="24.65" shape-rendering="crispEdges"/><rect fill="#eee8d5" x="146.4" y="294.3" width="12.2" height="24.65" shape-rendering="crispEdges"/><rect fill="#eee8d5" x="158.6" y="294.3" width="122" height="24.65" shape-rendering="crispEdges"/><rect fill="#eee8d5" x="280.6" y="294.3" width="12.2" height="24.65" shape-rendering="crispEdges"/><rect fill="#fdf6e3" x="292.8" y="294.3" width="12.2" height="24.65" shape-rendering="crispEdges"/><rect fill="#eee8d5" x="305" y="294.3" width="24.4" height="24.65" shape-rendering="crispEdges"/><rect fill="#e6e0ce" x="329.4" y="294.3" width="12.2" height="24.65" shape-rendering="crispEdges"/><rect fill="#eee8d5" x="341.6" y="294.3" width="24.4" height="24.65" shape-rendering="crispEdges"/><rect fill="#c3beab" x="366" y="294.3" width="24.4" height="24.65" shape-rendering="crispEdges"/><rect fill="#849900" x="390.4" y="294.3" width="24.4" height="24.65" shape-rendering="crispEdges"/><rect fill="#eee8d5" x="414.8" y="294.3" width="24.4" height="24.65" shape-rendering="crispEdges"/><rect fill="#fdf6e3" x="439.2" y="294.3" width="12.2" height="24.65" shape-rendering="crispEdges"/><rect fill="#eee8d5" x="451.4" y="294.3" width="24.4" height="24.65" shape-rendering="crispEdges"/><rect fill="#eee8d5" x="475.8" y="294.3" width="390.4" height="24.65" shape-rendering="crispEdges"/><rect fill="#eee8d5" x="866.2" y="294.3" width="12.2" height="24.65" shape-rendering="crispEdges"/><rect fill="#eee8d5" x="878.4" y="294.3" width="122" height="24.65" shape-rendering="crispEdges"/><rect fill="#eee8d5" x="1000.4" y="294.3" width="24.4" height="24.65" shape-rendering="crispEdges"/><rect fill="#eee8d5" x="1024.8" y="294.3" width="12.2" height="24.65" shape-rendering="crispEdges"/><rect fill="#fdf6e3" x="1037" y="294.3" width="61" height="24.65" shape-rendering="crispEdges"/><rect fill="#fdf6e3" x="0" y="318.7" width="61" height="24.65" shape-rendering="crispEdges"/><rect fill="#eee8d5" x="61" y="318.7" width="12.2" height="24.65" shape-rendering="crispEdges"/><rect fill="#eee8d5" x="73.2" y="318.7" width="24.4" height="24.65" shape-rendering="crispEdges"/><rect fill="#e6e0ce" x="97.6" y="318.7" width="12.2" height="24.65" shape-rendering="crispEdges"/><rect fill="#eee8d5" x="109.8" y="318.7" width="183" height="24.65" shape-rendering="crispEdges"/><rect fill="#fdf6e3" x="292.8" y="318.7" width="12.2" height="24.65" shape-rendering="crispEdges"/><rect fill="#eee8d5" x="305" y="318.7" width="24.4" height="24.65" shape-rendering="crispEdges"/><rect fill="#e6e0ce" x="329.4" y="318.7" width="12.2" height="24.65" shape-rendering="crispEdges"/><rect fill="#eee8d5" x="341.6" y="318.7" width="97.6" height="24.65" shape-rendering="crispEdges"/><rect fill="#fdf6e3" x="439.2" y="318.7" width="12.2" height="24.65" shape-rendering="crispEdges"/><rect fill="#eee8d5" x="451.4" y="318.7" width="573.4" height="24.65" shape-rendering="crispEdges"/><rect fill="#eee8d5" x="1024.8" y="318.7" width="12.2" height="24.65" shape-rendering="crispEdges"/><rect fill="#fdf6e3" x="1037" y="318.7" width="61" height="24.65" shape-rendering="crispEdges"/><rect fill="#fdf6e3" x="0" y="343.1" width="61" height="24.65" shape-rendering="crispEdges"/><rect fill="#eee8d5" x="61" y="343.1" width="12.2" height="24.65" shape-rendering="crispEdges"/><rect fill="#eee8d5" x="73.2" y="343.1" width="951.6" height="24.65" shape-rendering="crispEdges"/><rect fill="#eee8d5" x="1024.8" y="343.1" width="12.2" height="24.65" shape-rendering="crispEdges"/><rect fill="#fdf6e3" x="1037" y="343.1" width="61" height="24.65" shape-rendering="crispEdges"/><rect fill="#fdf6e3" x="0" y="367.5" width="61" height="24.65" shape-rendering="crispEdges"/><rect fill="#eee8d5" x="61" y="367.5" width="12.2" height="24.65" shape-rendering="crispEdges"/><rect fill="#eee8d5" x="73.2" y="367.5" width="36.6" height="24.65" shape-rendering="crispEdges"/><rect fill="#eee8d5" x="109.8" y="367.5" width="109.8" height="24.65" shape-rendering="crispEdges"/><rect fill="#eee8d5" x="219.6" y="367.5" width="24.4" height="24.65" shape-rendering="crispEdges"/><rect fill="#eee8d5" x="244" y="367.5" width="134.2" height="24.65" shape-rendering="crispEdges"/><rect fill="#eee8d5" x="378.2" y="367.5" width="24.4" height="24.65" shape-rendering="crispEdges"/><rect fill="#eee8d5" x="402.6" y="367.5" width="61" height="24.65" shape-rendering="crispEdges"/><rect fill="#eee8d5" x="463.6" y="367.5" width="561.2" height="24.65" shape-rendering="crispEdges"/><rect fill="#eee8d5" x="1024.8" y="367.5" width="12.2" height="24.65" shape-rendering="crispEdges"/><rect fill="#fdf6e3" x="1037" y="367.5" width="61" height="24.65" shape-rendering="crispEdges"/><rect fill="#fdf6e3" x="0" y="391.9" width="61" height="24.65" shape-rendering="crispEdges"/><rect fill="#eee8d5" x="61" y="391.9" width="12.2" height="24.65" shape-rendering="crispEdges"/><rect fill="#eee8d5" x="73.2" y="391.9" width="24.4" height="24.65" shape-rendering="crispEdges"/><rect fill="#b2ccd4" x="97.6" y="391.9" width="12.2" height="24.65" shape-rendering="crispEdges"/><rect fill="#b2ccd4" x="109.8" y="391.9" width="109.8" height="24.65" shape-rendering="crispEdges"/><rect fill="#b2ccd4" x="219.6" y="391.9" width="12.2" height="24.65" shape-rendering="crispEdges"/><rect fill="#eee8d5" x="231.8" y="391.9" width="12.2" height="24.65" shape-rendering="crispEdges"/><rect fill="#eee8d5" x="244" y="391.9" width="134.2" height="24.65" shape-rendering="crispEdges"/><rect fill="#eee8d5" x="378.2" y="391.9" width="24.4" height="24.65" shape-rendering="crispEdges"/><rect fill="#eee8d5" x="402.6" y="391.9" width="61" height="24.65" shape-rendering="crispEdges"/><rect fill="#eee8d5" x="463.6" y="391.9" width="561.2" height="24.65" shape-rendering="crispEdges"/><rect fill="#eee8d5" x="1024.8" y="391.9" width="12.2" height="24.65" shape-rendering="crispEdges"/><rect fill="#fdf6e3" x="1037" y="391.9" width="61" height="24.65" shape-rendering="crispEdges"/><rect fill="#fdf6e3" x="0" y="416.3" width="61" height="24.65" shape-rendering="crispEdges"/><rect fill="#eee8d5" x="61" y="416.3" width="12.2" height="24.65" shape-rendering="crispEdges"/><rect fill="#eee8d5" x="73.2" y="416.3" width="36.6" height="24.65" shape-rendering="crispEdges"/><rect fill="#eee8d5" x="109.8" y="416.3" width="109.8" height="24.65" shape-rendering="crispEdges"/><rect fill="#eee8d5" x="219.6" y="416.3" width="24.4" height="24.65" shape-rendering="crispEdges"/><rect fill="#eee8d5" x="244" y="416.3" width="134.2" height="24.65" shape-rendering="crispEdges"/><rect fill="#eee8d5" x="378.2" y="416.3" width="24.4" height="24.65" shape-rendering="crispEdges"/><rect fill="#eee8d5" x="402.6" y="416.3" width="61" height="24.65" shape-rendering="crispEdges"/><rect fill="#eee8d5" x="463.6" y="416.3" width="561.2" height="24.65" shape-rendering="crispEdges"/><rect fill="#eee8d5" x="1024.8" y="416.3" width="12.2" height="24.65" shape-rendering="crispEdges"/><rect fill="#fdf6e3" x="1037" y="416.3" width="61" height="24.65" shape-rendering="crispEdges"/><rect fill="#fdf6e3" x="0" y="440.7" width="61" height="24.65" shape-rendering="crispEdges"/><rect fill="#eee8d5" x="61" y="440.7" width="12.2" height="24.65" shape-rendering="crispEdges"/><rect fill="#eee8d5" x="73.2" y="440.7" width="36.6" height="24.65" shape-rendering="crispEdges"/><rect fill="#eee8d5" x="109.8" y="440.7" width="109.8" height="24.65" shape-rendering="crispEdges"/><rect fill="#eee8d5" x="219.6" y="440.7" width="24.4" height="24.65" shape-rendering="crispEdges"/><rect fill="#eee8d5" x="244" y="440.7" width="134.2" height="24.65" shape-rendering="crispEdges"/><rect fill="#eee8d5" x="378.2" y="440.7" width="24.4" height="24.65" shape-rendering="crispEdges"/><rect fill="#eee8d5" x="402.6" y="440.7" width="61" height="24.65" shape-rendering="crispEdges"/><rect fill="#eee8d5" x="463.6" y="440.7" width="561.2" height="24.65" shape-rendering="crispEdges"/><rect fill="#eee8d5" x="1024.8" y="440.7" width="12.2" height="24.65" shape-rendering="crispEdges"/><rect fill="#fdf6e3" x="1037" y="440.7" width="61" height="24.65" shape-rendering="crispEdges"/><rect fill="#fdf6e3" x="0" y="465.1" width="61" height="24.65" shape-rendering="crispEdges"/><rect fill="#eee8d5" x="61" y="465.1" width="12.2" height="24.65" shape-rendering="crispEdges"/><rect fill="#eee8d5" x="73.2" y="465.1" width="951.6" height="24.65" shape-rendering="crispEdges"/><rect fill="#eee8d5" x="1024.8" y="465.1" width="12.2" height="24.65" shape-rendering="crispEdges"/><rect fill="#fdf6e3" x="1037" y="465.1" width="61" height="24.65" shape-rendering="crispEdges"/><rect fill="#fdf6e3" x="0" y="489.5" width="61" height="24.65" shape-rendering="crispEdges"/><rect fill="#eee8d5" x="61" y="489.5" width="976" height="24.65" shape-rendering="crispEdges"/><rect fill="#fdf6e3" x="1037" y="489.5" width="61" height="24.65" shape-rendering="crispEdges"/><rect fill="#fdf6e3" x="0" y="513.9" width="1098" height="24.65" shape-rendering="crispEdges"/><rect fill="#fdf6e3" x="0" y="538.3" width="1098" height="24.65" shape-rendering="crispEdges"/><rect fill="#fdf6e3" x="0" y="562.7" width="1098" height="24.65" shape-rendering="crispEdges"/>
    <g class="terminal-1739701186-matrix">
    <text class="terminal-1739701186-r2" x="61" y="93.2" textLength="976" clip-path="url(#terminal-1739701186-line-3)">╭─&#160;textual-rs&#160;─────────────────────────────────────────────────────────────────╮</text>
<text class="terminal-1739701186-r2" x="61" y="117.6" textLength="12.2" clip-path="url(#terminal-1739701186-line-4)">│</text>
<text class="terminal-1739701186-r2" x="1024.8" y="117.6" textLength="12.2" clip-path="url(#terminal-1739701186-line-4)">│</text>
<text class="terminal-1739701186-r2" x="61" y="142" textLength="12.2" clip-path="url(#terminal-1739701186-line-5)">│</text>
<text class="terminal-1739701186-r3" x="280.6" y="142" textLength="207.4" clip-path="url(#terminal-1739701186-line-5)">Rich&#160;terminal&#160;UIs</text>
<text class="terminal-1739701186-r4" x="488" y="142" textLength="329.4" clip-path="url(#terminal-1739701186-line-5)">&#160;—&#160;widgets,&#160;CSS,&#160;reactivity</text>
<text class="terminal-1739701186-r2" x="1024.8" y="142" textLength="12.2" clip-path="url(#terminal-1739701186-line-5)">│</text>
<text class="terminal-1739701186-r2" x="61" y="166.4" textLength="12.2" clip-path="url(#terminal-1739701186-line-6)">│</text>
<text class="terminal-1739701186-r2" x="1024.8" y="166.4" textLength="12.2" clip-path="url(#terminal-1739701186-line-6)">│</text>
<text class="terminal-1739701186-r2" x="61" y="190.8" textLength="12.2" clip-path="url(#terminal-1739701186-line-7)">│</text>
<text class="terminal-1739701186-r5" x="134.2" y="190.8" textLength="195.2" clip-path="url(#terminal-1739701186-line-7)">▔▔▔▔▔▔▔▔▔▔▔▔▔▔▔▔</text>
<text class="terminal-1739701186-r6" x="341.6" y="190.8" textLength="195.2" clip-path="url(#terminal-1739701186-line-7)">▔▔▔▔▔▔▔▔▔▔▔▔▔▔▔▔</text>
<text class="terminal-1739701186-r7" x="549" y="190.8" textLength="195.2" clip-path="url(#terminal-1739701186-line-7)">▔▔▔▔▔▔▔▔▔▔▔▔▔▔▔▔</text>
<text class="terminal-1739701186-r8" x="756.4" y="190.8" textLength="195.2" clip-path="url(#terminal-1739701186-line-7)">▔▔▔▔▔▔▔▔▔▔▔▔▔▔▔▔</text>
<text class="terminal-1739701186-r2" x="1024.8" y="190.8" textLength="12.2" clip-path="url(#terminal-1739701186-line-7)">│</text>
<text class="terminal-1739701186-r2" x="61" y="215.2" textLength="12.2" clip-path="url(#terminal-1739701186-line-8)">│</text>
<text class="terminal-1739701186-r9" x="170.8" y="215.2" textLength="109.8" clip-path="url(#terminal-1739701186-line-8)">&#160;Primary&#160;</text>
<text class="terminal-1739701186-r10" x="378.2" y="215.2" textLength="109.8" clip-path="url(#terminal-1739701186-line-8)">&#160;Success&#160;</text>
<text class="terminal-1739701186-r11" x="585.6" y="215.2" textLength="109.8" clip-path="url(#terminal-1739701186-line-8)">&#160;Warning&#160;</text>
<text class="terminal-1739701186-r12" x="805.2" y="215.2" textLength="85.4" clip-path="url(#terminal-1739701186-line-8)">&#160;Error&#160;</text>
<text class="terminal-1739701186-r2" x="1024.8" y="215.2" textLength="12.2" clip-path="url(#terminal-1739701186-line-8)">│</text>
<text class="terminal-1739701186-r2" x="61" y="239.6" textLength="12.2" clip-path="url(#terminal-1739701186-line-9)">│</text>
<text class="terminal-1739701186-r13" x="134.2" y="239.6" textLength="195.2" clip-path="url(#terminal-1739701186-line-9)">▁▁▁▁▁▁▁▁▁▁▁▁▁▁▁▁</text>
<text class="terminal-1739701186-r14" x="341.6" y="239.6" textLength="195.2" clip-path="url(#terminal-1739701186-line-9)">▁▁▁▁▁▁▁▁▁▁▁▁▁▁▁▁</text>
<text class="terminal-1739701186-r15" x="549" y="239.6" textLength="195.2" clip-path="url(#terminal-1739701186-line-9)">▁▁▁▁▁▁▁▁▁▁▁▁▁▁▁▁</text>
<text class="terminal-1739701186-r16" x="756.4" y="239.6" textLength="195.2" clip-path="url(#terminal-1739701186-line-9)">▁▁▁▁▁▁▁▁▁▁▁▁▁▁▁▁</text>
<text class="terminal-1739701186-r2" x="1024.8" y="239.6" textLength="12.2" clip-path="url(#terminal-1739701186-line-9)">│</text>
<text class="terminal-1739701186-r2" x="61" y="264" textLength="12.2" clip-path="url(#terminal-1739701186-line-10)">│</text>
<text class="terminal-1739701186-r2" x="1024.8" y="264" textLength="12.2" clip-path="url(#terminal-1739701186-line-10)">│</text>
<text class="terminal-1739701186-r2" x="61" y="288.4" textLength="12.2" clip-path="url(#terminal-1739701186-line-11)">│</text>
<text class="terminal-1739701186-r17" x="97.6" y="288.4" textLength="12.2" clip-path="url(#terminal-1739701186-line-11)">▊</text>
<text class="terminal-1739701186-r18" x="109.8" y="288.4" textLength="183" clip-path="url(#terminal-1739701186-line-11)">▔▔▔▔▔▔▔▔▔▔▔▔▔▔▔</text>
<text class="terminal-1739701186-r18" x="292.8" y="288.4" textLength="12.2" clip-path="url(#terminal-1739701186-line-11)">▎</text>
<text class="terminal-1739701186-r17" x="329.4" y="288.4" textLength="12.2" clip-path="url(#terminal-1739701186-line-11)">▊</text>
<text class="terminal-1739701186-r18" x="341.6" y="288.4" textLength="97.6" clip-path="url(#terminal-1739701186-line-11)">▔▔▔▔▔▔▔▔</text>
<text class="terminal-1739701186-r18" x="439.2" y="288.4" textLength="12.2" clip-path="url(#terminal-1739701186-line-11)">▎</text>
<text class="terminal-1739701186-r2" x="1024.8" y="288.4" textLength="12.2" clip-path="url(#terminal-1739701186-line-11)">│</text>
<text class="terminal-1739701186-r2" x="61" y="312.8" textLength="12.2" clip-path="url(#terminal-1739701186-line-12)">│</text>
<text class="terminal-1739701186-r17" x="97.6" y="312.8" textLength="12.2" clip-path="url(#terminal-1739701186-line-12)">▊</text>
<text class="terminal-1739701186-r19" x="122" y="312.8" textLength="12.2" clip-path="url(#terminal-1739701186-line-12)">▐</text>
<text class="terminal-1739701186-r20" x="134.2" y="312.8" textLength="12.2" clip-path="url(#terminal-1739701186-line-12)">X</text>
<text class="terminal-1739701186-r19" x="146.4" y="312.8" textLength="12.2" clip-path="url(#terminal-1739701186-line-12)">▌</text>
<text class="terminal-1739701186-r21" x="158.6" y="312.8" textLength="122" clip-path="url(#terminal-1739701186-line-12)">&#160;Autosave&#160;</text>
<text class="terminal-1739701186-r18" x="292.8" y="312.8" textLength="12.2" clip-path="url(#terminal-1739701186-line-12)">▎</text>
<text class="terminal-1739701186-r17" x="329.4" y="312.8" textLength="12.2" clip-path="url(#terminal-1739701186-line-12)">▊</text>
<text class="terminal-1739701186-r18" x="439.2" y="312.8" textLength="12.2" clip-path="url(#terminal-1739701186-line-12)">▎</text>
<text class="terminal-1739701186-r21" x="475.8" y="312.8" textLength="390.4" clip-path="url(#terminal-1739701186-line-12)">━━━━━━━━━━━━━━━━━━━━━╺━━━━━━━━━━</text>
<text class="terminal-1739701186-r21" x="878.4" y="312.8" textLength="122" clip-path="url(#terminal-1739701186-line-12)">&#160;65%&#160;--:--</text>
<text class="terminal-1739701186-r2" x="1024.8" y="312.8" textLength="12.2" clip-path="url(#terminal-1739701186-line-12)">│</text>
<text class="terminal-1739701186-r2" x="61" y="337.2" textLength="12.2" clip-path="url(#terminal-1739701186-line-13)">│</text>
<text class="terminal-1739701186-r17" x="97.6" y="337.2" textLength="12.2" clip-path="url(#terminal-1739701186-line-13)">▊</text>
<text class="terminal-1739701186-r18" x="109.8" y="337.2" textLength="183" clip-path="url(#terminal-1739701186-line-13)">▁▁▁▁▁▁▁▁▁▁▁▁▁▁▁</text>
<text class="terminal-1739701186-r18" x="292.8" y="337.2" textLength="12.2" clip-path="url(#terminal-1739701186-line-13)">▎</text>
<text class="terminal-1739701186-r17" x="329.4" y="337.2" textLength="12.2" clip-path="url(#terminal-1739701186-line-13)">▊</text>
<text class="terminal-1739701186-r18" x="341.6" y="337.2" textLength="97.6" clip-path="url(#terminal-1739701186-line-13)">▁▁▁▁▁▁▁▁</text>
<text class="terminal-1739701186-r18" x="439.2" y="337.2" textLength="12.2" clip-path="url(#terminal-1739701186-line-13)">▎</text>
<text class="terminal-1739701186-r2" x="1024.8" y="337.2" textLength="12.2" clip-path="url(#terminal-1739701186-line-13)">│</text>
<text class="terminal-1739701186-r2" x="61" y="361.6" textLength="12.2" clip-path="url(#terminal-1739701186-line-14)">│</text>
<text class="terminal-1739701186-r2" x="1024.8" y="361.6" textLength="12.2" clip-path="url(#terminal-1739701186-line-14)">│</text>
<text class="terminal-1739701186-r2" x="61" y="386" textLength="12.2" clip-path="url(#terminal-1739701186-line-15)">│</text>
<text class="terminal-1739701186-r22" x="109.8" y="386" textLength="109.8" clip-path="url(#terminal-1739701186-line-15)">Widget&#160;&#160;&#160;</text>
<text class="terminal-1739701186-r22" x="244" y="386" textLength="134.2" clip-path="url(#terminal-1739701186-line-15)">Kind&#160;&#160;&#160;&#160;&#160;&#160;&#160;</text>
<text class="terminal-1739701186-r22" x="402.6" y="386" textLength="61" clip-path="url(#terminal-1739701186-line-15)">Since</text>
<text class="terminal-1739701186-r2" x="1024.8" y="386" textLength="12.2" clip-path="url(#terminal-1739701186-line-15)">│</text>
<text class="terminal-1739701186-r2" x="61" y="410.4" textLength="12.2" clip-path="url(#terminal-1739701186-line-16)">│</text>
<text class="terminal-1739701186-r21" x="109.8" y="410.4" textLength="109.8" clip-path="url(#terminal-1739701186-line-16)">Button&#160;&#160;&#160;</text>
<text class="terminal-1739701186-r21" x="244" y="410.4" textLength="134.2" clip-path="url(#terminal-1739701186-line-16)">Interactive</text>
<text class="terminal-1739701186-r21" x="402.6" y="410.4" textLength="61" clip-path="url(#terminal-1739701186-line-16)">0.1&#160;&#160;</text>
<text class="terminal-1739701186-r2" x="1024.8" y="410.4" textLength="12.2" clip-path="url(#terminal-1739701186-line-16)">│</text>
<text class="terminal-1739701186-r2" x="61" y="434.8" textLength="12.2" clip-path="url(#terminal-1739701186-line-17)">│</text>
<text class="terminal-1739701186-r21" x="109.8" y="434.8" textLength="109.8" clip-path="url(#terminal-1739701186-line-17)">DataTable</text>
<text class="terminal-1739701186-r21" x="244" y="434.8" textLength="134.2" clip-path="url(#terminal-1739701186-line-17)">Interactive</text>
<text class="terminal-1739701186-r21" x="402.6" y="434.8" textLength="61" clip-path="url(#terminal-1739701186-line-17)">0.4&#160;&#160;</text>
<text class="terminal-1739701186-r2" x="1024.8" y="434.8" textLength="12.2" clip-path="url(#terminal-1739701186-line-17)">│</text>
<text class="terminal-1739701186-r2" x="61" y="459.2" textLength="12.2" clip-path="url(#terminal-1739701186-line-18)">│</text>
<text class="terminal-1739701186-r21" x="109.8" y="459.2" textLength="109.8" clip-path="url(#terminal-1739701186-line-18)">Sparkline</text>
<text class="terminal-1739701186-r21" x="244" y="459.2" textLength="134.2" clip-path="url(#terminal-1739701186-line-18)">Display&#160;&#160;&#160;&#160;</text>
<text class="terminal-1739701186-r21" x="402.6" y="459.2" textLength="61" clip-path="url(#terminal-1739701186-line-18)">0.9&#160;&#160;</text>
<text class="terminal-1739701186-r2" x="1024.8" y="459.2" textLength="12.2" clip-path="url(#terminal-1739701186-line-18)">│</text>
<text class="terminal-1739701186-r2" x="61" y="483.6" textLength="12.2" clip-path="url(#terminal-1739701186-line-19)">│</text>
<text class="terminal-1739701186-r2" x="1024.8" y="483.6" textLength="12.2" clip-path="url(#terminal-1739701186-line-19)">│</text>
<text class="terminal-1739701186-r2" x="61" y="508" textLength="976" clip-path="url(#terminal-1739701186-line-20)">╰──────────────────────────────────────────────────────────────────────────────╯</text>
    </g>
    </g>
</svg>
