<svg class="rich-terminal" viewBox="0 0 750 416" xmlns="http://www.w3.org/2000/svg">
    <!-- Generated with Rich-rs https://github.com/Textualize/rich -->
    <style>

    @font-face {
        font-family: "Fira Code";
        src: local("FiraCode-Regular"),
                url("https://cdnjs.cloudflare.com/ajax/libs/firacode/6.2.0/woff2/FiraCode-Regular.woff2") format("woff2"),
                url("https://cdnjs.cloudflare.com/ajax/libs/firacode/6.2.0/woff/FiraCode-Regular.woff") format("woff");
        font-style: normal;
        font-weight: 400;
    }
    @font-face {
        font-family: "Fira Code";
        src: local("FiraCode-Bold"),
                url("https://cdnjs.cloudflare.com/ajax/libs/firacode/6.2.0/woff2/FiraCode-Bold.woff2") format("woff2"),
                url("https://cdnjs.cloudflare.com/ajax/libs/firacode/6.2.0/woff/FiraCode-Bold.woff") format("woff");
        font-style: bold;
        font-weight: 700;
    }

    .terminal-995348996-matrix {
        font-family: Fira Code, monospace;
        font-size: 20px;
        line-height: 24.4px;
        font-variant-east-asian: full-width;
    }

    .terminal-995348996-title {
        font-size: 18px;
        font-weight: bold;
        font-family: arial;
    }

    .terminal-995348996-r1 { fill: #e0e0e0 }
.terminal-995348996-r2 { fill: #c5c8c6 }
.terminal-995348996-r3 { fill: #4f4f4f }
.terminal-995348996-r4 { fill: #ddedf9;font-weight: bold }
    </style>

    <defs>
    <clipPath id="terminal-995348996-clip-terminal">
      <rect x="0" y="0" width="731" height="365" />
    </clipPath>
    <clipPath id="terminal-995348996-line-0">
    <rect x="0" y="1.5" width="732" height="24.65"/>
            </clipPath>
<clipPath id="terminal-995348996-line-1">
    <rect x="0" y="25.9" width="732" height="24.65"/>
            </clipPath>
<clipPath id="terminal-995348996-line-2">
    <rect x="0" y="50.3" width="732" height="24.65"/>
            </clipPath>
<clipPath id="terminal-995348996-line-3">
    <rect x="0" y="74.7" width="732" height="24.65"/>
            </clipPath>
<clipPath id="terminal-995348996-line-4">
    <rect x="0" y="99.1" width="732" height="24.65"/>
            </clipPath>
<clipPath id="terminal-995348996-line-5">
    <rect x="0" y="123.5" width="732" height="24.65"/>
            </clipPath>
<clipPath id="terminal-995348996-line-6">
    <rect x="0" y="147.9" width="732" height="24.65"/>
            </clipPath>
<clipPath id="terminal-995348996-line-7">
    <rect x="0" y="172.3" width="732" height="24.65"/>
            </clipPath>
<clipPath id="terminal-995348996-line-8">
    <rect x="0" y="196.7" width="732" height="24.65"/>
            </clipPath>
<clipPath id="terminal-995348996-line-9">
    <rect x="0" y="221.1" width="732" height="24.65"/>
            </clipPath>
<clipPath id="terminal-995348996-line-10">
    <rect x="0" y="245.5" width="732" height="24.65"/>
            </clipPath>
<clipPath id="terminal-995348996-line-11">
    <rect x="0" y="269.9" width="732" height="24.65"/>
            </clipPath>
<clipPath id="terminal-995348996-line-12">
    <rect x="0" y="294.3" width="732" height="24.65"/>
            </clipPath>
<clipPath id="terminal-995348996-line-13">
    <rect x="0" y="318.7" width="732" height="24.65"/>
            </clipPath>
    </defs>

    <rect fill="#292929" stroke="rgba(255,255,255,0.35)" stroke-width="1" x="1" y="1" width="748" height="414" rx="8"/><text class="terminal-995348996-title" fill="#c5c8c6" text-anchor="middle" x="374" y="27">Tree</text>
            <g transform="translate(26,22)">
            <circle cx="0" cy="0" r="7" fill="#ff5f57"/>
            <circle cx="22" cy="0" r="7" fill="#febc2e"/>
            <circle cx="44" cy="0" r="7" fill="#28c840"/>
            </g>
        
    <g transform="translate(9, 41)" clip-path="url(#terminal-995348996-clip-terminal)">
    <rect fill="#272727" x="0" y="1.5" width="146.4" height="24.65" shape-rendering="crispEdges"/><rect fill="#272727" x="146.4" y="1.5" width="585.6" height="24.65" shape-rendering="crispEdges"/><rect fill="#272727" x="0" y="25.9" width="48.8" height="24.65" shape-rendering="crispEdges"/><rect fill="#272727" x="48.8" y="25.9" width="61" height="24.65" shape-rendering="crispEdges"/><rect fill="#272727" x="109.8" y="25.9" width="622.2" height="24.65" shape-rendering="crispEdges"/><rect fill="#272727" x="0" y="50.3" width="97.6" height="24.65" shape-rendering="crispEdges"/><rect fill="#272727" x="97.6" y="50.3" width="109.8" height="24.65" shape-rendering="crispEdges"/><rect fill="#272727" x="207.4" y="50.3" width="524.6" height="24.65" shape-rendering="crispEdges"/><rect fill="#272727" x="0" y="74.7" width="146.4" height="24.65" shape-rendering="crispEdges"/><rect fill="#0178d4" x="146.4" y="74.7" width="158.6" height="24.65" shape-rendering="crispEdges"/><rect fill="#272727" x="305" y="74.7" width="427" height="24.65" shape-rendering="crispEdges"/><rect fill="#272727" x="0" y="99.1" width="146.4" height="24.65" shape-rendering="crispEdges"/><rect fill="#272727" x="146.4" y="99.1" width="109.8" height="24.65" shape-rendering="crispEdges"/><rect fill="#272727" x="256.2" y="99.1" width="475.8" height="24.65" shape-rendering="crispEdges"/><rect fill="#272727" x="0" y="123.5" width="146.4" height="24.65" shape-rendering="crispEdges"/><rect fill="#272727" x="146.4" y="123.5" width="122" height="24.65" shape-rendering="crispEdges"/><rect fill="#272727" x="268.4" y="123.5" width="463.6" height="24.65" shape-rendering="crispEdges"/><rect fill="#272727" x="0" y="147.9" width="97.6" height="24.65" shape-rendering="crispEdges"/><rect fill="#272727" x="97.6" y="147.9" width="109.8" height="24.65" shape-rendering="crispEdges"/><rect fill="#272727" x="207.4" y="147.9" width="524.6" height="24.65" shape-rendering="crispEdges"/><rect fill="#272727" x="0" y="172.3" width="146.4" height="24.65" shape-rendering="crispEdges"/><rect fill="#272727" x="146.4" y="172.3" width="109.8" height="24.65" shape-rendering="crispEdges"/><rect fill="#272727" x="256.2" y="172.3" width="475.8" height="24.65" shape-rendering="crispEdges"/><rect fill="#272727" x="0" y="196.7" width="146.4" height="24.65" shape-rendering="crispEdges"/><rect fill="#272727" x="146.4" y="196.7" width="158.6" height="24.65" shape-rendering="crispEdges"/><rect fill="#272727" x="305" y="196.7" width="427" height="24.65" shape-rendering="crispEdges"/><rect fill="#272727" x="0" y="221.1" width="146.4" height="24.65" shape-rendering="crispEdges"/><rect fill="#272727" x="146.4" y="221.1" width="146.4" height="24.65" shape-rendering="crispEdges"/><rect fill="#272727" x="292.8" y="221.1" width="439.2" height="24.65" shape-rendering="crispEdges"/><rect fill="#272727" x="0" y="245.5" width="97.6" height="24.65" shape-rendering="crispEdges"/><rect fill="#272727" x="97.6" y="245.5" width="61" height="24.65" shape-rendering="crispEdges"/><rect fill="#272727" x="158.6" y="245.5" width="573.4" height="24.65" shape-rendering="crispEdges"/><rect fill="#272727" x="0" y="269.9" width="48.8" height="24.65" shape-rendering="crispEdges"/><rect fill="#272727" x="48.8" y="269.9" width="122" height="24.65" shape-rendering="crispEdges"/><rect fill="#272727" x="170.8" y="269.9" width="561.2" height="24.65" shape-rendering="crispEdges"/><rect fill="#272727" x="0" y="294.3" width="48.8" height="24.65" shape-rendering="crispEdges"/><rect fill="#272727" x="48.8" y="294.3" width="122" height="24.65" shape-rendering="crispEdges"/><rect fill="#272727" x="170.8" y="294.3" width="561.2" height="24.65" shape-rendering="crispEdges"/><rect fill="#272727" x="0" y="318.7" width="732" height="24.65" shape-rendering="crispEdges"/>
    <g class="terminal-995348996-matrix">
    <text class="terminal-995348996-r1" x="0" y="20" textLength="146.4" clip-path="url(#terminal-995348996-line-0)">▼&#160;textual-rs</text>
<text class="terminal-995348996-r3" x="0" y="44.4" textLength="48.8" clip-path="url(#terminal-995348996-line-1)">├──&#160;</text>
<text class="terminal-995348996-r1" x="48.8" y="44.4" textLength="61" clip-path="url(#terminal-995348996-line-1)">▼&#160;src</text>
<text class="terminal-995348996-r3" x="0" y="68.8" textLength="97.6" clip-path="url(#terminal-995348996-line-2)">│&#160;&#160;&#160;├──&#160;</text>
<text class="terminal-995348996-r1" x="97.6" y="68.8" textLength="109.8" clip-path="url(#terminal-995348996-line-2)">▼&#160;runtime</text>
<text class="terminal-995348996-r3" x="0" y="93.2" textLength="146.4" clip-path="url(#terminal-995348996-line-3)">│&#160;&#160;&#160;│&#160;&#160;&#160;├──&#160;</text>
<text class="terminal-995348996-r4" x="146.4" y="93.2" textLength="158.6" clip-path="url(#terminal-995348996-line-3)">event_loop.rs</text>
<text class="terminal-995348996-r3" x="0" y="117.6" textLength="146.4" clip-path="url(#terminal-995348996-line-4)">│&#160;&#160;&#160;│&#160;&#160;&#160;├──&#160;</text>
<text class="terminal-995348996-r1" x="146.4" y="117.6" textLength="109.8" clip-path="url(#terminal-995348996-line-4)">render.rs</text>
<text class="terminal-995348996-r3" x="0" y="142" textLength="146.4" clip-path="url(#terminal-995348996-line-5)">│&#160;&#160;&#160;│&#160;&#160;&#160;└──&#160;</text>
<text class="terminal-995348996-r1" x="146.4" y="142" textLength="122" clip-path="url(#terminal-995348996-line-5)">routing.rs</text>
<text class="terminal-995348996-r3" x="0" y="166.4" textLength="97.6" clip-path="url(#terminal-995348996-line-6)">│&#160;&#160;&#160;├──&#160;</text>
<text class="terminal-995348996-r1" x="97.6" y="166.4" textLength="109.8" clip-path="url(#terminal-995348996-line-6)">▼&#160;widgets</text>
<text class="terminal-995348996-r3" x="0" y="190.8" textLength="146.4" clip-path="url(#terminal-995348996-line-7)">│&#160;&#160;&#160;│&#160;&#160;&#160;├──&#160;</text>
<text class="terminal-995348996-r1" x="146.4" y="190.8" textLength="109.8" clip-path="url(#terminal-995348996-line-7)">button.rs</text>
<text class="terminal-995348996-r3" x="0" y="215.2" textLength="146.4" clip-path="url(#terminal-995348996-line-8)">│&#160;&#160;&#160;│&#160;&#160;&#160;├──&#160;</text>
<text class="terminal-995348996-r1" x="146.4" y="215.2" textLength="158.6" clip-path="url(#terminal-995348996-line-8)">data_table.rs</text>
<text class="terminal-995348996-r3" x="0" y="239.6" textLength="146.4" clip-path="url(#terminal-995348996-line-9)">│&#160;&#160;&#160;│&#160;&#160;&#160;└──&#160;</text>
<text class="terminal-995348996-r1" x="146.4" y="239.6" textLength="146.4" clip-path="url(#terminal-995348996-line-9)">text_area.rs</text>
<text class="terminal-995348996-r3" x="0" y="264" textLength="97.6" clip-path="url(#terminal-995348996-line-10)">│&#160;&#160;&#160;└──&#160;</text>
<text class="terminal-995348996-r1" x="97.6" y="264" textLength="61" clip-path="url(#terminal-995348996-line-10)">▶&#160;css</text>
<text class="terminal-995348996-r3" x="0" y="288.4" textLength="48.8" clip-path="url(#terminal-995348996-line-11)">├──&#160;</text>
<text class="terminal-995348996-r1" x="48.8" y="288.4" textLength="122" clip-path="url(#terminal-995348996-line-11)">▶&#160;examples</text>
<text class="terminal-995348996-r3" x="0" y="312.8" textLength="48.8" clip-path="url(#terminal-995348996-line-12)">└──&#160;</text>
<text class="terminal-995348996-r1" x="48.8" y="312.8" textLength="122" clip-path="url(#terminal-995348996-line-12)">Cargo.toml</text>
    </g>
    </g>
</svg>
